<svg width="408" height="408" viewBox="0 0 408 408" fill="none" xmlns="http://www.w3.org/2000/svg">
<path d="M85.6262 132.334L38.9568 122.044L42.7022 116.234L82.1129 125.5L57.4757 93.3201L61.1518 87.6184L89.7878 125.879L85.6262 132.334ZM102.779 107.581L79.9208 84.8223L84.4363 80.2869L107.295 103.045L102.779 107.581ZM77.9151 78.2194C77.0421 79.0963 76.0474 79.551 74.9312 79.5836C73.8451 79.586 72.8787 79.1657 72.0321 78.3228C71.2158 77.51 70.8215 76.5756 70.8494 75.5196C70.8771 74.4033 71.3275 73.4067 72.2005 72.5298C73.0434 71.6832 74.0229 71.2436 75.1391 71.211C76.2251 71.1483 77.1763 71.5233 77.9927 72.3361C78.8393 73.179 79.2487 74.1586 79.221 75.275C79.1933 76.3913 78.758 77.3728 77.9151 78.2194ZM126.719 89.548C124.188 91.2888 121.539 92.2561 118.772 92.45C116.006 92.6438 113.347 92.0905 110.795 90.7901C108.279 89.4654 106.078 87.4321 104.192 84.69C102.258 81.8776 101.122 79.0596 100.786 76.2359C100.46 73.3529 100.882 70.6544 102.053 68.1403C103.2 65.5911 105.074 63.4219 107.675 61.6327C110.277 59.8435 112.908 58.8883 115.569 58.767C118.23 58.6457 120.736 59.2012 123.085 60.4335C125.41 61.6307 127.37 63.3895 128.966 65.7097C129.208 66.0612 129.456 66.46 129.711 66.9061C129.977 67.2928 130.262 67.7443 130.565 68.2606L108.839 83.2026L106.264 79.4586L122.822 68.0708C121.194 65.9286 119.271 64.7137 117.054 64.4262C114.812 64.1036 112.672 64.6434 110.633 66.0458C109.191 67.0371 108.103 68.2777 107.367 69.7677C106.607 71.2225 106.293 72.8366 106.425 74.6099C106.568 76.3239 107.293 78.1301 108.598 80.0285L109.614 81.505C110.968 83.4736 112.468 84.9017 114.114 85.7892C115.771 86.6174 117.439 86.972 119.117 86.853C120.772 86.6989 122.303 86.1383 123.709 85.1712C125.396 84.0106 126.531 82.6865 127.113 81.1987C127.695 79.7109 127.815 78.1529 127.471 76.5247L132.745 72.898C133.4 74.8294 133.63 76.8203 133.435 78.8705C133.215 80.8856 132.551 82.8184 131.441 84.6688C130.367 86.4951 128.793 88.1215 126.719 89.548ZM150.512 76.2477L132.07 48.1398L138.132 46.2974L152.684 69.9687L151.502 70.2611L151.175 42.3334L158.033 40.2491L173.302 63.6358L172.157 64.0507L171.015 36.3037L177.2 34.424L177.516 68.0405L171.209 69.9574L155.239 45.5801L156.463 45.2078L156.758 74.3494L150.512 76.2477ZM217.535 66.9216L215.111 20.564L221.804 22.0102L222.808 60.3999L240.884 26.1327L247.828 27.633L249.805 66.3641L266.72 31.7149L273.414 33.1611L251.879 74.342L244.56 72.7606L242.267 35.7946L224.667 68.4624L217.535 66.9216ZM277.626 87.3598C275.067 85.7398 273.136 83.6847 271.834 81.1944C270.568 78.7269 270.013 76.0531 270.169 73.173C270.384 70.2797 271.382 67.4269 273.162 64.6147C274.987 61.7305 277.168 59.6012 279.704 58.227C282.262 56.8168 284.946 56.167 287.754 56.2778C290.562 56.3886 293.246 57.2539 295.805 58.8739C298.401 60.5167 300.332 62.5718 301.598 65.0393C302.864 67.5068 303.401 70.1692 303.209 73.0265C303.052 75.9066 302.061 78.7888 300.236 81.673C298.411 84.5573 296.23 86.6866 293.694 88.0608C291.194 89.4578 288.54 90.1009 285.732 89.9901C282.924 89.8794 280.222 89.0026 277.626 87.3598ZM280.57 82.7089C282.048 83.6444 283.61 84.1281 285.256 84.1599C286.938 84.2146 288.585 83.7671 290.196 82.8173C291.866 81.8543 293.374 80.3093 294.72 78.1821C296.066 76.055 296.823 74.0602 296.992 72.1978C297.184 70.2993 296.895 68.6016 296.125 67.1048C295.392 65.6308 294.304 64.4375 292.862 63.5248C291.42 62.6121 289.858 62.1285 288.176 62.0738C286.493 62.0191 284.817 62.4732 283.148 63.4362C281.537 64.386 280.058 65.9244 278.712 68.0516C277.366 70.1787 276.597 72.1916 276.405 74.09C276.273 75.9753 276.573 77.6549 277.306 79.1289C278.076 80.6257 279.164 81.8191 280.57 82.7089ZM297.265 100.019L320.116 77.2528L324.182 81.3333L320.281 86.0326C321.821 85.5225 323.345 85.3293 324.853 85.4528C326.391 85.5462 327.899 85.9412 329.376 86.6379C330.883 87.3648 332.344 88.4385 333.76 89.8591L328.954 94.6472L327.328 93.015C326.394 92.078 325.385 91.3067 324.3 90.7013C323.245 90.0658 322.114 89.6865 320.908 89.5636C319.731 89.4709 318.494 89.71 317.196 90.2808C315.897 90.8516 314.553 91.8296 313.163 93.2148L301.782 104.553L297.265 100.019ZM324.979 134.798L331.556 112.68L351.136 115.871L355.398 122.337L332.325 118.382L336.333 115.74L329.417 141.531L324.979 134.798ZM313.814 117.859L352.288 92.4993L355.81 97.8429L317.336 123.203L313.814 117.859ZM334.056 156.955C333.117 154.391 332.717 151.993 332.854 149.762C332.992 147.531 333.616 145.575 334.728 143.896C335.84 142.217 337.374 140.883 339.329 139.895L341.573 146.025C340.685 146.577 339.943 147.281 339.347 148.135C338.765 149.029 338.417 150.065 338.303 151.243C338.204 152.461 338.411 153.771 338.924 155.173C339.408 156.495 339.984 157.511 340.653 158.22C341.376 158.955 342.132 159.406 342.92 159.572C343.747 159.723 344.542 159.659 345.303 159.381C346.425 158.97 347.164 158.381 347.519 157.615C347.93 156.874 348.097 155.904 348.022 154.705C348.001 153.531 347.859 152.152 347.597 150.567C347.324 149.077 347.146 147.597 347.063 146.128C347.034 144.685 347.15 143.325 347.41 142.048C347.684 140.812 348.192 139.717 348.934 138.764C349.715 137.797 350.827 137.049 352.27 136.521C353.993 135.89 355.704 135.786 357.403 136.209C359.143 136.617 360.702 137.523 362.079 138.928C363.511 140.357 364.652 142.234 365.503 144.558C366.735 147.923 366.923 150.921 366.069 153.551C365.214 156.181 363.39 158.212 360.597 159.643L358.463 153.813C359.767 153.155 360.589 152.172 360.929 150.866C361.309 149.546 361.183 148.024 360.553 146.302C359.922 144.579 359.097 143.381 358.079 142.709C357.06 142.037 355.99 141.906 354.868 142.317C354.147 142.581 353.601 143.076 353.231 143.802C352.861 144.528 352.659 145.465 352.625 146.614C352.646 147.788 352.767 149.174 352.989 150.774C353.366 153.044 353.562 155.131 353.577 157.034C353.592 158.936 353.201 160.601 352.406 162.028C351.611 163.455 350.131 164.565 347.968 165.357C346.099 166.086 344.261 166.214 342.452 165.74C340.657 165.307 339.029 164.335 337.568 162.825C336.121 161.356 334.951 159.399 334.056 156.955Z" fill="black"/>
<g clip-path="url(#clip0_116_124)">
<path d="M163.586 180.668L180.667 244.416M180.667 244.416L244.415 227.335M180.667 244.416L227.334 163.587M305.037 262.335C272.82 318.136 201.468 337.255 145.667 305.038C89.8662 272.821 70.7474 201.469 102.964 145.668C135.181 89.8676 206.533 70.7488 262.334 102.965C318.134 135.182 337.253 206.534 305.037 262.335Z" stroke="black" stroke-width="6" stroke-linecap="round" stroke-linejoin="round"/>
</g>
<defs>
<clipPath id="clip0_116_124">
<rect width="280" height="280" fill="white" transform="translate(152.757 12.7582) rotate(30)"/>
</clipPath>
</defs>
</svg>
