<svg version="1.1" viewBox="0.0 0.0 600.0 371.0" fill="none" stroke="none" stroke-linecap="square" stroke-miterlimit="10" width="600" height="371" xmlns:xlink="http://www.w3.org/1999/xlink" xmlns="http://www.w3.org/2000/svg"><path fill="#ffffff" d="M0 0L600.0 0L600.0 371.0L0 371.0L0 0Z" fill-rule="nonzero"/><path stroke="#333333" stroke-width="1.0" stroke-linecap="butt" d="M77.5 332.5L581.5 332.5" fill-rule="nonzero"/><path stroke="#cccccc" stroke-width="1.0" stroke-linecap="butt" d="M77.5 242.5L581.5 242.5" fill-rule="nonzero"/><path stroke="#cccccc" stroke-width="1.0" stroke-linecap="butt" d="M77.5 152.5L581.5 152.5" fill-rule="nonzero"/><path stroke="#cccccc" stroke-width="1.0" stroke-linecap="butt" d="M77.5 61.5L581.5 61.5" fill-rule="nonzero"/><clipPath id="id_0"><path d="M77.55 61.916668L581.45 61.916668L581.45 332.45L77.55 332.45L77.55 61.916668Z" clip-rule="nonzero"/></clipPath><path stroke="#000000" stroke-width="2.0" stroke-linecap="butt" stroke-opacity="0.0" clip-path="url(#id_0)" d="M292.0 332.0L153.0 332.0L153.0 82.0C153.0 80.89543 153.89543 80.0 155.0 80.0L290.0 80.0C291.10458 80.0 292.0 80.89543 292.0 82.0Z" fill-rule="nonzero"/><path fill="#6aa84f" clip-path="url(#id_0)" d="M292.0 332.0L153.0 332.0L153.0 82.0C153.0 80.89543 153.89543 80.0 155.0 80.0L290.0 80.0C291.10458 80.0 292.0 80.89543 292.0 82.0Z" fill-rule="nonzero"/><path stroke="#000000" stroke-width="2.0" stroke-linecap="butt" stroke-opacity="0.0" clip-path="url(#id_0)" d="M507.0 332.0L368.0 332.0L368.0 118.0C368.0 116.89543 368.89542 116.0 370.0 116.0L505.0 116.0C506.10458 116.0 507.0 116.89543 507.0 118.0Z" fill-rule="nonzero"/><path fill="#6aa84f" clip-path="url(#id_0)" d="M507.0 332.0L368.0 332.0L368.0 118.0C368.0 116.89543 368.89542 116.0 370.0 116.0L505.0 116.0C506.10458 116.0 507.0 116.89543 507.0 118.0Z" fill-rule="nonzero"/><path fill="#000000" d="M26.534388 213.12083L26.831263 211.99583Q28.221888 212.35521 28.956263 213.27708Q29.690638 214.19896 29.690638 215.54271Q29.690638 216.93333 29.128138 217.80833Q28.565638 218.68333 27.503138 219.13646Q26.425013 219.58958 25.190638 219.58958Q23.846888 219.58958 22.846888 219.07396Q21.846888 218.55833 21.331263 217.62083Q20.815638 216.66771 20.815638 215.52708Q20.815638 214.24583 21.471888 213.37083Q22.128138 212.48021 23.315638 212.13646L23.581263 213.26146Q22.643763 213.55833 22.221888 214.13646Q21.784388 214.69896 21.784388 215.55833Q21.784388 216.54271 22.268763 217.21458Q22.737513 217.87083 23.534388 218.15208Q24.331263 218.41771 25.190638 218.41771Q26.284388 218.41771 27.096888 218.10521Q27.909388 217.77708 28.315638 217.10521Q28.721888 216.43333 28.721888 215.63646Q28.721888 214.68333 28.175013 214.02708Q27.628138 213.35521 26.534388 213.12083ZM26.440638 210.77708Q24.706263 210.77708 23.878138 209.82396Q23.190638 209.02708 23.190638 207.87083Q23.190638 206.58958 24.034388 205.77708Q24.862513 204.94896 26.346888 204.94896Q27.550013 204.94896 28.237513 205.30833Q28.925013 205.66771 29.315638 206.37083Q29.690638 207.05833 29.690638 207.87083Q29.690638 209.16771 28.862513 209.98021Q28.018763 210.77708 26.440638 210.77708ZM26.440638 209.69896Q27.628138 209.69896 28.221888 209.18333Q28.815638 208.65208 28.815638 207.87083Q28.815638 207.07396 28.221888 206.55833Q27.628138 206.04271 26.409388 206.04271Q25.253138 206.04271 24.659388 206.57396Q24.065638 207.08958 24.065638 207.87083Q24.065638 208.65208 24.659388 209.18333Q25.237513 209.69896 26.440638 209.69896ZM29.550013 199.30833L28.628138 199.30833Q29.690638 200.04271 29.690638 201.29271Q29.690638 201.83958 29.487513 202.32396Q29.268763 202.79271 28.956263 203.02708Q28.628138 203.26146 28.159388 203.35521Q27.862513 203.41771 27.175013 203.41771L23.331263 203.41771L23.331263 202.35521L26.784388 202.35521Q27.596888 202.35521 27.893763 202.29271Q28.300013 202.19896 28.550013 201.88646Q28.784388 201.55833 28.784388 201.07396Q28.784388 200.60521 28.550013 200.19896Q28.300013 199.77708 27.878138 199.60521Q27.456263 199.41771 26.659388 199.41771L23.331263 199.41771L23.331263 198.37083L29.550013 198.37083L29.550013 199.30833ZM29.550013 196.38646L23.331263 196.38646L23.331263 195.44896L24.206263 195.44896Q23.190638 194.76146 23.190638 193.46458Q23.190638 192.90208 23.393763 192.43333Q23.596888 191.94896 23.925013 191.71458Q24.253138 191.48021 24.690638 191.38646Q24.987513 191.33958 25.721888 191.33958L29.550013 191.33958L29.550013 192.38646L25.768763 192.38646Q25.112513 192.38646 24.800013 192.51146Q24.487513 192.63646 24.300013 192.94896Q24.096888 193.26146 24.096888 193.68333Q24.096888 194.35521 24.534388 194.85521Q24.956263 195.33958 26.143763 195.33958L29.550013 195.33958L29.550013 196.38646ZM28.612513 187.08958L29.534388 186.93333Q29.628138 187.38646 29.628138 187.73021Q29.628138 188.30833 29.456263 188.62083Q29.268763 188.93333 28.971888 189.07396Q28.675013 189.19896 27.721888 189.19896L24.143763 189.19896L24.143763 189.96458L23.331263 189.96458L23.331263 189.19896L21.784388 189.19896L21.159388 188.15208L23.331263 188.15208L23.331263 187.08958L24.143763 187.08958L24.143763 188.15208L27.784388 188.15208Q28.237513 188.15208 28.362513 188.10521Q28.487513 188.04271 28.565638 187.91771Q28.643763 187.79271 28.643763 187.55833Q28.643763 187.37083 28.612513 187.08958Z" fill-rule="nonzero"/><path fill="#000000" d="M65.05 332.21564Q65.05 330.6844 65.3625 329.7625Q65.675 328.825 66.28438 328.325Q66.90938 327.825 67.84688 327.825Q68.53438 327.825 69.05 328.10626Q69.58125 328.3875 69.925 328.91876Q70.26875 329.4344 70.45625 330.1844Q70.64375 330.9344 70.64375 332.21564Q70.64375 333.73126 70.33125 334.65314Q70.03438 335.575 69.40938 336.09064Q68.8 336.59064 67.84688 336.59064Q66.6125 336.59064 65.89375 335.7Q65.05 334.6375 65.05 332.21564ZM66.12813 332.21564Q66.12813 334.325 66.62813 335.02814Q67.12813 335.73126 67.84688 335.73126Q68.58125 335.73126 69.06563 335.02814Q69.56563 334.325 69.56563 332.21564Q69.56563 330.09064 69.06563 329.40314Q68.58125 328.7 67.83125 328.7Q67.1125 328.7 66.675 329.3094Q66.12813 330.09064 66.12813 332.21564Z" fill-rule="nonzero"/><path fill="#000000" d="M65.05 244.02222L66.15938 243.92847Q66.28438 244.74097 66.72188 245.14722Q67.175 245.55347 67.81563 245.55347Q68.56563 245.55347 69.09688 244.97534Q69.62813 244.39722 69.62813 243.45972Q69.62813 242.55347 69.1125 242.03784Q68.6125 241.50659 67.78438 241.50659Q67.28438 241.50659 66.8625 241.74097Q66.45625 241.97534 66.22188 242.33472L65.2375 242.20972L66.06563 237.80347L70.34688 237.80347L70.34688 238.80347L66.90938 238.80347L66.45625 241.11597Q67.22188 240.56909 68.06563 240.56909Q69.19063 240.56909 69.95625 241.35034Q70.7375 242.13159 70.7375 243.36597Q70.7375 244.52222 70.06563 245.38159Q69.2375 246.41284 67.81563 246.41284Q66.64375 246.41284 65.89375 245.75659Q65.15938 245.10034 65.05 244.02222Z" fill-rule="nonzero"/><path fill="#000000" d="M62.01875 156.09445L60.971874 156.09445L60.971874 149.3757Q60.58125 149.73508 59.95625 150.11008Q59.346874 150.46945 58.8625 150.64133L58.8625 149.6257Q59.7375 149.20383 60.39375 148.6257Q61.065624 148.03195 61.346874 147.46945L62.01875 147.46945L62.01875 156.09445ZM65.05 151.86008Q65.05 150.32883 65.3625 149.40695Q65.675 148.46945 66.28438 147.96945Q66.90938 147.46945 67.84688 147.46945Q68.53438 147.46945 69.05 147.7507Q69.58125 148.03195 69.925 148.5632Q70.26875 149.07883 70.45625 149.82883Q70.64375 150.57883 70.64375 151.86008Q70.64375 153.3757 70.33125 154.29758Q70.03438 155.21945 69.40938 155.73508Q68.8 156.23508 67.84688 156.23508Q66.6125 156.23508 65.89375 155.34445Q65.05 154.28195 65.05 151.86008ZM66.12813 151.86008Q66.12813 153.96945 66.62813 154.67258Q67.12813 155.3757 67.84688 155.3757Q68.58125 155.3757 69.06563 154.67258Q69.56563 153.96945 69.56563 151.86008Q69.56563 149.73508 69.06563 149.04758Q68.58125 148.34445 67.83125 148.34445Q67.1125 148.34445 66.675 148.95383Q66.12813 149.73508 66.12813 151.86008Z" fill-rule="nonzero"/><path fill="#000000" d="M62.01875 65.916664L60.971874 65.916664L60.971874 59.197914Q60.58125 59.55729 59.95625 59.93229Q59.346874 60.291664 58.8625 60.46354L58.8625 59.447914Q59.7375 59.02604 60.39375 58.447914Q61.065624 57.854164 61.346874 57.291664L62.01875 57.291664L62.01875 65.916664ZM65.05 63.666664L66.15938 63.572914Q66.28438 64.385414 66.72188 64.791664Q67.175 65.197914 67.81563 65.197914Q68.56563 65.197914 69.09688 64.61979Q69.62813 64.041664 69.62813 63.104164Q69.62813 62.197914 69.1125 61.68229Q68.6125 61.15104 67.78438 61.15104Q67.28438 61.15104 66.8625 61.385414Q66.45625 61.61979 66.22188 61.979164L65.2375 61.854164L66.06563 57.447914L70.34688 57.447914L70.34688 58.447914L66.90938 58.447914L66.45625 60.760414Q67.22188 60.21354 68.06563 60.21354Q69.19063 60.21354 69.95625 60.99479Q70.7375 61.77604 70.7375 63.010414Q70.7375 64.166664 70.06563 65.02604Q69.2375 66.05729 67.81563 66.05729Q66.64375 66.05729 65.89375 65.40104Q65.15938 64.74479 65.05 63.666664Z" fill-rule="nonzero"/><path fill="#000000" d="M215.2091 349.45L215.2091 340.85626L216.36536 340.85626L220.88098 347.60626L220.88098 340.85626L221.97473 340.85626L221.97473 349.45L220.80286 349.45L216.28723 342.7L216.28723 349.45L215.2091 349.45ZM223.69348 346.34064Q223.69348 344.60626 224.6466 343.77814Q225.44348 343.09064 226.59973 343.09064Q227.88098 343.09064 228.69348 343.9344Q229.5216 344.7625 229.5216 346.2469Q229.5216 347.45 229.16223 348.1375Q228.80286 348.825 228.09973 349.21564Q227.41223 349.59064 226.59973 349.59064Q225.30286 349.59064 224.49036 348.7625Q223.69348 347.91876 223.69348 346.34064ZM224.7716 346.34064Q224.7716 347.52814 225.28723 348.1219Q225.81848 348.71564 226.59973 348.71564Q227.3966 348.71564 227.91223 348.1219Q228.42786 347.52814 228.42786 346.3094Q228.42786 345.15314 227.8966 344.5594Q227.38098 343.96564 226.59973 343.96564Q225.81848 343.96564 225.28723 344.5594Q224.7716 345.1375 224.7716 346.34064Z" fill-rule="nonzero"/><path fill="#000000" d="M429.55652 349.45L429.55652 345.8094L426.24402 340.85626L427.63464 340.85626L429.32214 343.45Q429.7909 344.16876 430.19714 344.90314Q430.58777 344.23126 431.13464 343.3875L432.80652 340.85626L434.11902 340.85626L430.69714 345.8094L430.69714 349.45L429.55652 349.45ZM438.25964 347.45L439.3534 347.575Q439.1034 348.52814 438.40027 349.0594Q437.69714 349.59064 436.61902 349.59064Q435.25964 349.59064 434.44714 348.7469Q433.65027 347.90314 433.65027 346.3875Q433.65027 344.825 434.46277 343.96564Q435.27527 343.09064 436.55652 343.09064Q437.80652 343.09064 438.58777 343.9344Q439.38464 344.77814 439.38464 346.325Q439.38464 346.41876 439.38464 346.60626L434.74402 346.60626Q434.80652 347.6375 435.32214 348.1844Q435.83777 348.71564 436.61902 348.71564Q437.19714 348.71564 437.6034 348.41876Q438.02527 348.10626 438.25964 347.45ZM434.80652 345.7469L438.27527 345.7469Q438.21277 344.95 437.88464 344.5594Q437.36902 343.95 436.57214 343.95Q435.83777 343.95 435.33777 344.4344Q434.8534 344.91876 434.80652 345.7469ZM440.58777 347.59064L441.61902 347.4344Q441.71277 348.0594 442.1034 348.3875Q442.50964 348.71564 443.24402 348.71564Q443.96277 348.71564 444.30652 348.4344Q444.6659 348.1375 444.6659 347.73126Q444.6659 347.3719 444.3534 347.16876Q444.13464 347.02814 443.27527 346.8094Q442.11902 346.5125 441.6659 346.3094Q441.2284 346.09064 440.99402 345.71564Q440.75964 345.34064 440.75964 344.8719Q440.75964 344.46564 440.94714 344.10626Q441.13464 343.7469 441.46277 343.5125Q441.71277 343.34064 442.13464 343.21564Q442.55652 343.09064 443.05652 343.09064Q443.77527 343.09064 444.32214 343.3094Q444.88464 343.5125 445.15027 343.8719Q445.4159 344.23126 445.50964 344.825L444.4784 344.96564Q444.4159 344.4969 444.07214 344.23126Q443.74402 343.95 443.11902 343.95Q442.40027 343.95 442.08777 344.2Q441.77527 344.4344 441.77527 344.7625Q441.77527 344.96564 441.90027 345.1219Q442.0409 345.29376 442.30652 345.40314Q442.46277 345.46564 443.24402 345.66876Q444.36902 345.98126 444.80652 346.16876Q445.24402 346.35626 445.49402 346.71564Q445.74402 347.075 445.74402 347.6219Q445.74402 348.15314 445.43152 348.6219Q445.13464 349.075 444.55652 349.34064Q443.9784 349.59064 443.24402 349.59064Q442.02527 349.59064 441.38464 349.09064Q440.75964 348.575 440.58777 347.59064Z" fill-rule="nonzero"/><path fill="#757575" d="M20.096874 37.55L20.096874 23.2375L25.01875 23.2375Q26.690624 23.2375 27.58125 23.440624Q28.8 23.721874 29.675 24.45625Q30.8 25.425 31.3625 26.909374Q31.925 28.39375 31.925 30.315624Q31.925 31.940624 31.55 33.20625Q31.175 34.45625 30.565624 35.284374Q29.971874 36.1125 29.26875 36.596874Q28.565624 37.065624 27.565624 37.315624Q26.565624 37.55 25.253124 37.55L20.096874 37.55ZM21.9875 35.8625L25.05 35.8625Q26.45625 35.8625 27.253124 35.596874Q28.065624 35.33125 28.55 34.846874Q29.221874 34.175 29.596874 33.05Q29.971874 31.909374 29.971874 30.284374Q29.971874 28.034374 29.2375 26.83125Q28.503124 25.628124 27.440624 25.221874Q26.690624 24.925 25.003124 24.925L21.9875 24.925L21.9875 35.8625ZM33.221874 32.3625Q33.221874 29.4875 34.815624 28.096874Q36.159374 26.940624 38.08125 26.940624Q40.221874 26.940624 41.565624 28.346874Q42.925 29.753124 42.925 32.221874Q42.925 34.221874 42.33125 35.378124Q41.7375 36.51875 40.58125 37.159374Q39.440624 37.784374 38.08125 37.784374Q35.89375 37.784374 34.55 36.39375Q33.221874 34.9875 33.221874 32.3625ZM35.01875 32.3625Q35.01875 34.3625 35.878124 35.346874Q36.753124 36.33125 38.08125 36.33125Q39.39375 36.33125 40.253124 35.346874Q41.128124 34.346874 41.128124 32.3Q41.128124 30.378124 40.253124 29.39375Q39.378124 28.39375 38.08125 28.39375Q36.753124 28.39375 35.878124 29.39375Q35.01875 30.378124 35.01875 32.3625ZM50.784374 41.55L50.596874 39.89375Q51.175 40.05 51.596874 40.05Q52.190624 40.05 52.534374 39.846874Q52.89375 39.659374 53.1125 39.315624Q53.284374 39.05 53.659374 38.003124Q53.70625 37.846874 53.815624 37.565624L49.878124 27.175L51.76875 27.175L53.925 33.190624Q54.346874 34.33125 54.675 35.58125Q54.9875 34.378124 55.39375 33.221874L57.6125 27.175L59.378124 27.175L55.425 37.721874Q54.8 39.440624 54.440624 40.08125Q53.971874 40.95625 53.3625 41.346874Q52.76875 41.753124 51.925 41.753124Q51.409374 41.753124 50.784374 41.55ZM60.221874 32.3625Q60.221874 29.4875 61.815624 28.096874Q63.159374 26.940624 65.08125 26.940624Q67.22188 26.940624 68.56563 28.346874Q69.925 29.753124 69.925 32.221874Q69.925 34.221874 69.33125 35.378124Q68.7375 36.51875 67.58125 37.159374Q66.44063 37.784374 65.08125 37.784374Q62.89375 37.784374 61.55 36.39375Q60.221874 34.9875 60.221874 32.3625ZM62.01875 32.3625Q62.01875 34.3625 62.878124 35.346874Q63.753124 36.33125 65.08125 36.33125Q66.39375 36.33125 67.25313 35.346874Q68.12813 34.346874 68.12813 32.3Q68.12813 30.378124 67.25313 29.39375Q66.37813 28.39375 65.08125 28.39375Q63.753124 28.39375 62.878124 29.39375Q62.01875 30.378124 62.01875 32.3625ZM78.65938 37.55L78.65938 36.01875Q77.45625 37.784374 75.37813 37.784374Q74.45625 37.784374 73.65938 37.440624Q72.8625 37.08125 72.47188 36.55Q72.09688 36.01875 71.94063 35.2375Q71.83125 34.721874 71.83125 33.596874L71.83125 27.175L73.58125 27.175L73.58125 32.925Q73.58125 34.3 73.69063 34.784374Q73.8625 35.471874 74.39375 35.878124Q74.94063 36.26875 75.72188 36.26875Q76.51875 36.26875 77.20625 35.8625Q77.90938 35.45625 78.19063 34.76875Q78.4875 34.065624 78.4875 32.7375L78.4875 27.175L80.2375 27.175L80.2375 37.55L78.65938 37.55ZM87.8625 37.55L87.8625 27.175L89.44063 27.175L89.44063 28.628124Q89.925 27.878124 90.7375 27.409374Q91.55 26.940624 92.58125 26.940624Q93.7375 26.940624 94.47188 27.425Q95.20625 27.89375 95.51875 28.753124Q96.75313 26.940624 98.72188 26.940624Q100.26875 26.940624 101.09688 27.8Q101.925 28.659374 101.925 30.425L101.925 37.55L100.175 37.55L100.175 31.01875Q100.175 29.95625 100.00313 29.503124Q99.83125 29.034374 99.37813 28.753124Q98.94063 28.471874 98.33125 28.471874Q97.2375 28.471874 96.50313 29.20625Q95.78438 29.925 95.78438 31.51875L95.78438 37.55L94.03438 37.55L94.03438 30.815624Q94.03438 29.64375 93.59688 29.065624Q93.175 28.471874 92.19063 28.471874Q91.45625 28.471874 90.81563 28.8625Q90.19063 29.253124 89.90938 30.003124Q89.62813 30.753124 89.62813 32.175L89.62813 37.55L87.8625 37.55ZM110.97188 34.20625L112.78438 34.440624Q112.3625 36.01875 111.19063 36.909374Q110.03438 37.784374 108.22188 37.784374Q105.95625 37.784374 104.6125 36.39375Q103.28438 34.9875 103.28438 32.45625Q103.28438 29.83125 104.62813 28.39375Q105.97188 26.940624 108.12813 26.940624Q110.20625 26.940624 111.51875 28.3625Q112.84688 29.76875 112.84688 32.346874Q112.84688 32.503124 112.83125 32.815624L105.09688 32.815624Q105.19063 34.51875 106.06563 35.425Q106.94063 36.33125 108.2375 36.33125Q109.20625 36.33125 109.87813 35.83125Q110.56563 35.315624 110.97188 34.20625ZM105.19063 31.3625L110.9875 31.3625Q110.87813 30.065624 110.33125 29.409374Q109.4875 28.39375 108.14375 28.39375Q106.94063 28.39375 106.1125 29.20625Q105.28438 30.003124 105.19063 31.3625ZM121.64375 36.26875Q120.65938 37.096874 119.75313 37.440624Q118.84688 37.784374 117.81563 37.784374Q116.1125 37.784374 115.19063 36.95625Q114.26875 36.1125 114.26875 34.815624Q114.26875 34.05 114.6125 33.425Q114.97188 32.8 115.53438 32.425Q116.09688 32.034374 116.8 31.83125Q117.31563 31.70625 118.3625 31.565624Q120.4875 31.315624 121.4875 30.971874Q121.50313 30.6125 121.50313 30.503124Q121.50313 29.440624 121.00313 28.9875Q120.33125 28.39375 119.00313 28.39375Q117.75313 28.39375 117.15938 28.83125Q116.58125 29.26875 116.3 30.378124L114.58125 30.14375Q114.81563 29.034374 115.34688 28.3625Q115.87813 27.675 116.89375 27.315624Q117.90938 26.940624 119.25313 26.940624Q120.58125 26.940624 121.40938 27.253124Q122.2375 27.565624 122.62813 28.05Q123.01875 28.51875 123.175 29.2375Q123.26875 29.690624 123.26875 30.8625L123.26875 33.20625Q123.26875 35.659374 123.37813 36.315624Q123.4875 36.95625 123.83125 37.55L121.9875 37.55Q121.72188 37.003124 121.64375 36.26875ZM121.4875 32.346874Q120.53438 32.7375 118.6125 33.003124Q117.53438 33.159374 117.08125 33.3625Q116.64375 33.55 116.39375 33.925Q116.14375 34.3 116.14375 34.76875Q116.14375 35.471874 116.675 35.940624Q117.20625 36.409374 118.2375 36.409374Q119.25313 36.409374 120.03438 35.971874Q120.83125 35.51875 121.20625 34.753124Q121.4875 34.14375 121.4875 32.9875L121.4875 32.346874ZM125.83125 37.55L125.83125 23.2375L127.58125 23.2375L127.58125 37.55L125.83125 37.55ZM135.8625 41.51875L135.8625 27.175L137.47188 27.175L137.47188 28.51875Q138.03438 27.7375 138.7375 27.346874Q139.45625 26.940624 140.47188 26.940624Q141.8 26.940624 142.81563 27.628124Q143.83125 28.315624 144.34688 29.565624Q144.87813 30.8 144.87813 32.284374Q144.87813 33.878124 144.3 35.159374Q143.7375 36.425 142.64375 37.1125Q141.55 37.784374 140.34688 37.784374Q139.47188 37.784374 138.76875 37.409374Q138.08125 37.034374 137.62813 36.471874L137.62813 41.51875L135.8625 41.51875ZM137.45625 32.425Q137.45625 34.425 138.26875 35.378124Q139.08125 36.33125 140.2375 36.33125Q141.40938 36.33125 142.2375 35.346874Q143.08125 34.3625 143.08125 32.26875Q143.08125 30.3 142.25313 29.315624Q141.44063 28.315624 140.31563 28.315624Q139.19063 28.315624 138.31563 29.378124Q137.45625 30.425 137.45625 32.425ZM146.84688 37.55L146.84688 27.175L148.425 27.175L148.425 28.753124Q149.03438 27.64375 149.55 27.3Q150.06563 26.940624 150.675 26.940624Q151.56563 26.940624 152.4875 27.503124L151.87813 29.14375Q151.2375 28.753124 150.59688 28.753124Q150.01875 28.753124 149.55 29.1125Q149.09688 29.45625 148.89375 30.065624Q148.6125 31.003124 148.6125 32.1125L148.6125 37.55L146.84688 37.55ZM160.97188 34.20625L162.78438 34.440624Q162.3625 36.01875 161.19063 36.909374Q160.03438 37.784374 158.22188 37.784374Q155.95625 37.784374 154.6125 36.39375Q153.28438 34.9875 153.28438 32.45625Q153.28438 29.83125 154.62813 28.39375Q155.97188 26.940624 158.12813 26.940624Q160.20625 26.940624 161.51875 28.3625Q162.84688 29.76875 162.84688 32.346874Q162.84688 32.503124 162.83125 32.815624L155.09688 32.815624Q155.19063 34.51875 156.06563 35.425Q156.94063 36.33125 158.2375 36.33125Q159.20625 36.33125 159.87813 35.83125Q160.56563 35.315624 160.97188 34.20625ZM155.19063 31.3625L160.9875 31.3625Q160.87813 30.065624 160.33125 29.409374Q159.4875 28.39375 158.14375 28.39375Q156.94063 28.39375 156.1125 29.20625Q155.28438 30.003124 155.19063 31.3625ZM164.8625 41.51875L164.8625 27.175L166.47188 27.175L166.47188 28.51875Q167.03438 27.7375 167.7375 27.346874Q168.45625 26.940624 169.47188 26.940624Q170.8 26.940624 171.81563 27.628124Q172.83125 28.315624 173.34688 29.565624Q173.87813 30.8 173.87813 32.284374Q173.87813 33.878124 173.3 35.159374Q172.7375 36.425 171.64375 37.1125Q170.55 37.784374 169.34688 37.784374Q168.47188 37.784374 167.76875 37.409374Q167.08125 37.034374 166.62813 36.471874L166.62813 41.51875L164.8625 41.51875ZM166.45625 32.425Q166.45625 34.425 167.26875 35.378124Q168.08125 36.33125 169.2375 36.33125Q170.40938 36.33125 171.2375 35.346874Q172.08125 34.3625 172.08125 32.26875Q172.08125 30.3 171.25313 29.315624Q170.44063 28.315624 169.31563 28.315624Q168.19063 28.315624 167.31563 29.378124Q166.45625 30.425 166.45625 32.425ZM179.15938 34.01875Q179.14375 33.675 179.14375 33.503124Q179.14375 32.45625 179.44063 31.70625Q179.65938 31.14375 180.14375 30.565624Q180.4875 30.14375 181.39375 29.346874Q182.31563 28.534374 182.58125 28.065624Q182.8625 27.58125 182.8625 27.01875Q182.8625 25.9875 182.05 25.221874Q181.25313 24.440624 180.09688 24.440624Q178.97188 24.440624 178.22188 25.14375Q177.47188 25.846874 177.2375 27.33125L175.425 27.1125Q175.675 25.1125 176.87813 24.05Q178.08125 22.9875 180.06563 22.9875Q182.175 22.9875 183.425 24.128124Q184.675 25.26875 184.675 26.89375Q184.675 27.83125 184.22188 28.628124Q183.78438 29.409374 182.50313 30.55Q181.64375 31.315624 181.37813 31.675Q181.12813 32.034374 180.9875 32.503124Q180.8625 32.971874 180.84688 34.01875L179.15938 34.01875ZM179.05 37.55L179.05 35.55L181.05 35.55L181.05 37.55L179.05 37.55Z" fill-rule="nonzero"/></svg>