<svg version="1.1" viewBox="0.0 0.0 600.0 371.0" fill="none" stroke="none" stroke-linecap="square" stroke-miterlimit="10" width="600" height="371" xmlns:xlink="http://www.w3.org/1999/xlink" xmlns="http://www.w3.org/2000/svg"><path fill="#ffffff" d="M0 0L600.0 0L600.0 371.0L0 371.0L0 0Z" fill-rule="nonzero"/><path stroke="#333333" stroke-width="1.0" stroke-linecap="butt" d="M77.5 318.5L581.5 318.5" fill-rule="nonzero"/><path stroke="#cccccc" stroke-width="1.0" stroke-linecap="butt" d="M77.5 275.5L581.5 275.5" fill-rule="nonzero"/><path stroke="#cccccc" stroke-width="1.0" stroke-linecap="butt" d="M77.5 232.5L581.5 232.5" fill-rule="nonzero"/><path stroke="#cccccc" stroke-width="1.0" stroke-linecap="butt" d="M77.5 190.5L581.5 190.5" fill-rule="nonzero"/><path stroke="#cccccc" stroke-width="1.0" stroke-linecap="butt" d="M77.5 147.5L581.5 147.5" fill-rule="nonzero"/><path stroke="#cccccc" stroke-width="1.0" stroke-linecap="butt" d="M77.5 104.5L581.5 104.5" fill-rule="nonzero"/><path stroke="#cccccc" stroke-width="1.0" stroke-linecap="butt" d="M77.5 61.5L581.5 61.5" fill-rule="nonzero"/><clipPath id="id_0"><path d="M77.55 61.916668L581.45 61.916668L581.45 318.45L77.55 318.45L77.55 61.916668Z" clip-rule="nonzero"/></clipPath><path stroke="#000000" stroke-width="2.0" stroke-linecap="butt" stroke-opacity="0.0" clip-path="url(#id_0)" d="M172.0 318.0L111.0 318.0L111.0 85.0C111.0 83.89543 111.89543 83.0 113.0 83.0L170.0 83.0C171.10457 83.0 172.0 83.89543 172.0 85.0Z" fill-rule="nonzero"/><path fill="#6aa84f" clip-path="url(#id_0)" d="M172.0 318.0L111.0 318.0L111.0 85.0C111.0 83.89543 111.89543 83.0 113.0 83.0L170.0 83.0C171.10457 83.0 172.0 83.89543 172.0 85.0Z" fill-rule="nonzero"/><path stroke="#000000" stroke-width="2.0" stroke-linecap="butt" stroke-opacity="0.0" clip-path="url(#id_0)" d="M266.0 318.0L205.0 318.0L205.0 149.0C205.0 147.89543 205.89543 147.0 207.0 147.0L264.0 147.0C265.10458 147.0 266.0 147.89543 266.0 149.0Z" fill-rule="nonzero"/><path fill="#6aa84f" clip-path="url(#id_0)" d="M266.0 318.0L205.0 318.0L205.0 149.0C205.0 147.89543 205.89543 147.0 207.0 147.0L264.0 147.0C265.10458 147.0 266.0 147.89543 266.0 149.0Z" fill-rule="nonzero"/><path stroke="#000000" stroke-width="2.0" stroke-linecap="butt" stroke-opacity="0.0" clip-path="url(#id_0)" d="M361.0 318.0L300.0 318.0L300.0 235.0C300.0 233.89543 300.89542 233.0 302.0 233.0L359.0 233.0C360.10458 233.0 361.0 233.89543 361.0 235.0Z" fill-rule="nonzero"/><path fill="#6aa84f" clip-path="url(#id_0)" d="M361.0 318.0L300.0 318.0L300.0 235.0C300.0 233.89543 300.89542 233.0 302.0 233.0L359.0 233.0C360.10458 233.0 361.0 233.89543 361.0 235.0Z" fill-rule="nonzero"/><path stroke="#000000" stroke-width="2.0" stroke-linecap="butt" stroke-opacity="0.0" clip-path="url(#id_0)" d="M455.0 318.0L394.0 318.0L394.0 278.0C394.0 276.89542 394.89542 276.0 396.0 276.0L453.0 276.0C454.10458 276.0 455.0 276.89542 455.0 278.0Z" fill-rule="nonzero"/><path fill="#6aa84f" clip-path="url(#id_0)" d="M455.0 318.0L394.0 318.0L394.0 278.0C394.0 276.89542 394.89542 276.0 396.0 276.0L453.0 276.0C454.10458 276.0 455.0 276.89542 455.0 278.0Z" fill-rule="nonzero"/><path stroke="#000000" stroke-width="2.0" stroke-linecap="butt" stroke-opacity="0.0" clip-path="url(#id_0)" d="M549.0 318.0L488.0 318.0L488.0 299.0C488.0 297.89542 488.89542 297.0 490.0 297.0L547.0 297.0C548.10455 297.0 549.0 297.89542 549.0 299.0Z" fill-rule="nonzero"/><path fill="#6aa84f" clip-path="url(#id_0)" d="M549.0 318.0L488.0 318.0L488.0 299.0C488.0 297.89542 488.89542 297.0 490.0 297.0L547.0 297.0C548.10455 297.0 549.0 297.89542 549.0 299.0Z" fill-rule="nonzero"/><path fill="#000000" d="M26.534388 213.12083L26.831263 211.99583Q28.221888 212.35521 28.956263 213.27708Q29.690638 214.19896 29.690638 215.54271Q29.690638 216.93333 29.128138 217.80833Q28.565638 218.68333 27.503138 219.13646Q26.425013 219.58958 25.190638 219.58958Q23.846888 219.58958 22.846888 219.07396Q21.846888 218.55833 21.331263 217.62083Q20.815638 216.66771 20.815638 215.52708Q20.815638 214.24583 21.471888 213.37083Q22.128138 212.48021 23.315638 212.13646L23.581263 213.26146Q22.643763 213.55833 22.221888 214.13646Q21.784388 214.69896 21.784388 215.55833Q21.784388 216.54271 22.268763 217.21458Q22.737513 217.87083 23.534388 218.15208Q24.331263 218.41771 25.190638 218.41771Q26.284388 218.41771 27.096888 218.10521Q27.909388 217.77708 28.315638 217.10521Q28.721888 216.43333 28.721888 215.63646Q28.721888 214.68333 28.175013 214.02708Q27.628138 213.35521 26.534388 213.12083ZM26.440638 210.77708Q24.706263 210.77708 23.878138 209.82396Q23.190638 209.02708 23.190638 207.87083Q23.190638 206.58958 24.034388 205.77708Q24.862513 204.94896 26.346888 204.94896Q27.550013 204.94896 28.237513 205.30833Q28.925013 205.66771 29.315638 206.37083Q29.690638 207.05833 29.690638 207.87083Q29.690638 209.16771 28.862513 209.98021Q28.018763 210.77708 26.440638 210.77708ZM26.440638 209.69896Q27.628138 209.69896 28.221888 209.18333Q28.815638 208.65208 28.815638 207.87083Q28.815638 207.07396 28.221888 206.55833Q27.628138 206.04271 26.409388 206.04271Q25.253138 206.04271 24.659388 206.57396Q24.065638 207.08958 24.065638 207.87083Q24.065638 208.65208 24.659388 209.18333Q25.237513 209.69896 26.440638 209.69896ZM29.550013 199.30833L28.628138 199.30833Q29.690638 200.04271 29.690638 201.29271Q29.690638 201.83958 29.487513 202.32396Q29.268763 202.79271 28.956263 203.02708Q28.628138 203.26146 28.159388 203.35521Q27.862513 203.41771 27.175013 203.41771L23.331263 203.41771L23.331263 202.35521L26.784388 202.35521Q27.596888 202.35521 27.893763 202.29271Q28.300013 202.19896 28.550013 201.88646Q28.784388 201.55833 28.784388 201.07396Q28.784388 200.60521 28.550013 200.19896Q28.300013 199.77708 27.878138 199.60521Q27.456263 199.41771 26.659388 199.41771L23.331263 199.41771L23.331263 198.37083L29.550013 198.37083L29.550013 199.30833ZM29.550013 196.38646L23.331263 196.38646L23.331263 195.44896L24.206263 195.44896Q23.190638 194.76146 23.190638 193.46458Q23.190638 192.90208 23.393763 192.43333Q23.596888 191.94896 23.925013 191.71458Q24.253138 191.48021 24.690638 191.38646Q24.987513 191.33958 25.721888 191.33958L29.550013 191.33958L29.550013 192.38646L25.768763 192.38646Q25.112513 192.38646 24.800013 192.51146Q24.487513 192.63646 24.300013 192.94896Q24.096888 193.26146 24.096888 193.68333Q24.096888 194.35521 24.534388 194.85521Q24.956263 195.33958 26.143763 195.33958L29.550013 195.33958L29.550013 196.38646ZM28.612513 187.08958L29.534388 186.93333Q29.628138 187.38646 29.628138 187.73021Q29.628138 188.30833 29.456263 188.62083Q29.268763 188.93333 28.971888 189.07396Q28.675013 189.19896 27.721888 189.19896L24.143763 189.19896L24.143763 189.96458L23.331263 189.96458L23.331263 189.19896L21.784388 189.19896L21.159388 188.15208L23.331263 188.15208L23.331263 187.08958L24.143763 187.08958L24.143763 188.15208L27.784388 188.15208Q28.237513 188.15208 28.362513 188.10521Q28.487513 188.04271 28.565638 187.91771Q28.643763 187.79271 28.643763 187.55833Q28.643763 187.37083 28.612513 187.08958Z" fill-rule="nonzero"/><path fill="#000000" d="M65.05 318.21564Q65.05 316.6844 65.3625 315.7625Q65.675 314.825 66.28438 314.325Q66.90938 313.825 67.84688 313.825Q68.53438 313.825 69.05 314.10626Q69.58125 314.3875 69.925 314.91876Q70.26875 315.4344 70.45625 316.1844Q70.64375 316.9344 70.64375 318.21564Q70.64375 319.73126 70.33125 320.65314Q70.03438 321.575 69.40938 322.09064Q68.8 322.59064 67.84688 322.59064Q66.6125 322.59064 65.89375 321.7Q65.05 320.6375 65.05 318.21564ZM66.12813 318.21564Q66.12813 320.325 66.62813 321.02814Q67.12813 321.73126 67.84688 321.73126Q68.58125 321.73126 69.06563 321.02814Q69.56563 320.325 69.56563 318.21564Q69.56563 316.09064 69.06563 315.40314Q68.58125 314.7 67.83125 314.7Q67.1125 314.7 66.675 315.3094Q66.12813 316.09064 66.12813 318.21564Z" fill-rule="nonzero"/><path fill="#000000" d="M70.59688 278.67883L70.59688 279.69446L64.90938 279.69446Q64.90938 279.31946 65.03438 278.96008Q65.25313 278.38196 65.72188 277.81946Q66.20625 277.25696 67.1125 276.52258Q68.51875 275.36633 69.00313 274.69446Q69.50313 274.02258 69.50313 273.42883Q69.50313 272.80383 69.05 272.38196Q68.59688 271.94446 67.87813 271.94446Q67.1125 271.94446 66.65938 272.39758Q66.20625 272.8507 66.19063 273.6632L65.1125 273.55383Q65.22188 272.33508 65.94063 271.71008Q66.675 271.06946 67.90938 271.06946Q69.14375 271.06946 69.8625 271.75696Q70.58125 272.44446 70.58125 273.46008Q70.58125 273.9757 70.3625 274.4757Q70.15938 274.96008 69.65938 275.52258Q69.175 276.06946 68.05 277.02258Q67.09688 277.81946 66.81563 278.11633Q66.55 278.39758 66.37813 278.67883L70.59688 278.67883Z" fill-rule="nonzero"/><path fill="#000000" d="M68.425 236.93889L68.425 234.87639L64.70625 234.87639L64.70625 233.90764L68.62813 228.34514L69.4875 228.34514L69.4875 233.90764L70.64375 233.90764L70.64375 234.87639L69.4875 234.87639L69.4875 236.93889L68.425 236.93889ZM68.425 233.90764L68.425 230.04826L65.7375 233.90764L68.425 233.90764Z" fill-rule="nonzero"/><path fill="#000000" d="M70.51875 187.69896L69.47188 187.77708Q69.33125 187.15208 69.08125 186.87083Q68.64375 186.41771 68.01875 186.41771Q67.51875 186.41771 67.12813 186.69896Q66.64375 187.07396 66.34688 187.77708Q66.06563 188.46458 66.05 189.74583Q66.425 189.16771 66.97188 188.88646Q67.53438 188.60521 68.14375 188.60521Q69.19063 188.60521 69.925 189.38646Q70.675 190.16771 70.675 191.38646Q70.675 192.19896 70.31563 192.90208Q69.97188 193.58958 69.3625 193.96458Q68.75313 194.32396 67.9875 194.32396Q66.65938 194.32396 65.83125 193.35521Q65.00313 192.38646 65.00313 190.16771Q65.00313 187.66771 65.925 186.54271Q66.72188 185.55833 68.08125 185.55833Q69.09688 185.55833 69.7375 186.13646Q70.39375 186.69896 70.51875 187.69896ZM66.22188 191.40208Q66.22188 191.94896 66.44063 192.44896Q66.675 192.93333 67.08125 193.19896Q67.50313 193.46458 67.97188 193.46458Q68.62813 193.46458 69.1125 192.93333Q69.59688 192.38646 69.59688 191.46458Q69.59688 190.57396 69.1125 190.05833Q68.64375 189.54271 67.925 189.54271Q67.20625 189.54271 66.70625 190.05833Q66.22188 190.57396 66.22188 191.40208Z" fill-rule="nonzero"/><path fill="#000000" d="M66.675 146.77153Q66.01875 146.52153 65.69063 146.08403Q65.37813 145.6309 65.37813 145.02153Q65.37813 144.08403 66.05 143.4434Q66.7375 142.80278 67.84688 142.80278Q68.97188 142.80278 69.65938 143.45903Q70.34688 144.11528 70.34688 145.05278Q70.34688 145.64653 70.03438 146.08403Q69.72188 146.52153 69.08125 146.77153Q69.87813 147.02153 70.28438 147.59966Q70.69063 148.17778 70.69063 148.97466Q70.69063 150.0684 69.90938 150.8184Q69.14375 151.5684 67.8625 151.5684Q66.59688 151.5684 65.81563 150.8184Q65.03438 150.0684 65.03438 148.9434Q65.03438 148.09966 65.45625 147.53716Q65.89375 146.97466 66.675 146.77153ZM66.45625 144.97466Q66.45625 145.58403 66.84688 145.97466Q67.25313 146.36528 67.87813 146.36528Q68.4875 146.36528 68.87813 145.99028Q69.26875 145.59966 69.26875 145.03716Q69.26875 144.45903 68.8625 144.0684Q68.45625 143.66216 67.8625 143.66216Q67.25313 143.66216 66.84688 144.05278Q66.45625 144.4434 66.45625 144.97466ZM66.12813 148.9434Q66.12813 149.39653 66.33125 149.8184Q66.55 150.24028 66.97188 150.47466Q67.39375 150.70903 67.87813 150.70903Q68.62813 150.70903 69.1125 150.22466Q69.6125 149.74028 69.6125 148.99028Q69.6125 148.22466 69.1125 147.72466Q68.6125 147.22466 67.84688 147.22466Q67.09688 147.22466 66.6125 147.72466Q66.12813 148.20903 66.12813 148.9434Z" fill-rule="nonzero"/><path fill="#000000" d="M62.01875 108.672226L60.971874 108.672226L60.971874 101.953476Q60.58125 102.31285 59.95625 102.68785Q59.346874 103.047226 58.8625 103.2191L58.8625 102.203476Q59.7375 101.7816 60.39375 101.203476Q61.065624 100.609726 61.346874 100.047226L62.01875 100.047226L62.01875 108.672226ZM65.05 104.43785Q65.05 102.9066 65.3625 101.984726Q65.675 101.047226 66.28438 100.547226Q66.90938 100.047226 67.84688 100.047226Q68.53438 100.047226 69.05 100.328476Q69.58125 100.609726 69.925 101.140976Q70.26875 101.6566 70.45625 102.4066Q70.64375 103.1566 70.64375 104.43785Q70.64375 105.953476 70.33125 106.87535Q70.03438 107.797226 69.40938 108.31285Q68.8 108.81285 67.84688 108.81285Q66.6125 108.81285 65.89375 107.922226Q65.05 106.859726 65.05 104.43785ZM66.12813 104.43785Q66.12813 106.547226 66.62813 107.25035Q67.12813 107.953476 67.84688 107.953476Q68.58125 107.953476 69.06563 107.25035Q69.56563 106.547226 69.56563 104.43785Q69.56563 102.31285 69.06563 101.62535Q68.58125 100.922226 67.83125 100.922226Q67.1125 100.922226 66.675 101.5316Q66.12813 102.31285 66.12813 104.43785Z" fill-rule="nonzero"/><path fill="#000000" d="M62.01875 65.916664L60.971874 65.916664L60.971874 59.197914Q60.58125 59.55729 59.95625 59.93229Q59.346874 60.291664 58.8625 60.46354L58.8625 59.447914Q59.7375 59.02604 60.39375 58.447914Q61.065624 57.854164 61.346874 57.291664L62.01875 57.291664L62.01875 65.916664ZM70.59688 64.90104L70.59688 65.916664L64.90938 65.916664Q64.90938 65.541664 65.03438 65.18229Q65.25313 64.604164 65.72188 64.041664Q66.20625 63.479164 67.1125 62.74479Q68.51875 61.58854 69.00313 60.916664Q69.50313 60.24479 69.50313 59.65104Q69.50313 59.02604 69.05 58.604164Q68.59688 58.166664 67.87813 58.166664Q67.1125 58.166664 66.65938 58.61979Q66.20625 59.072914 66.19063 59.885414L65.1125 59.77604Q65.22188 58.55729 65.94063 57.93229Q66.675 57.291664 67.90938 57.291664Q69.14375 57.291664 69.8625 57.979164Q70.58125 58.666664 70.58125 59.68229Q70.58125 60.197914 70.3625 60.697914Q70.15938 61.18229 69.65938 61.74479Q69.175 62.291664 68.05 63.24479Q67.09688 64.041664 66.81563 64.33854Q66.55 64.61979 66.37813 64.90104L70.59688 64.90104Z" fill-rule="nonzero"/><path fill="#000000" d="M116.17304 334.4344L116.17304 335.45L110.48554 335.45Q110.48554 335.075 110.61054 334.71564Q110.82929 334.1375 111.29804 333.575Q111.78242 333.0125 112.68867 332.27814Q114.09492 331.1219 114.57929 330.45Q115.07929 329.77814 115.07929 329.1844Q115.07929 328.5594 114.62617 328.1375Q114.17304 327.7 113.45429 327.7Q112.68867 327.7 112.23554 328.15314Q111.78242 328.60626 111.76679 329.41876L110.68867 329.3094Q110.79804 328.09064 111.51679 327.46564Q112.25117 326.825 113.48554 326.825Q114.71992 326.825 115.43867 327.5125Q116.15742 328.2 116.15742 329.21564Q116.15742 329.73126 115.93867 330.23126Q115.73554 330.71564 115.23554 331.27814Q114.75117 331.825 113.62617 332.77814Q112.67304 333.575 112.39179 333.8719Q112.12617 334.15314 111.95429 334.4344L116.17304 334.4344ZM117.50117 332.8719L117.50117 331.8094L120.75117 331.8094L120.75117 332.8719L117.50117 332.8719ZM121.62617 333.1844L122.68867 333.04376Q122.86054 333.9344 123.29804 334.34064Q123.73554 334.73126 124.36054 334.73126Q125.11054 334.73126 125.62617 334.21564Q126.14179 333.7 126.14179 332.9344Q126.14179 332.21564 125.65742 331.7469Q125.18867 331.2625 124.45429 331.2625Q124.15742 331.2625 123.70429 331.3875L123.82929 330.45Q123.93867 330.46564 124.00117 330.46564Q124.67304 330.46564 125.20429 330.1219Q125.75117 329.7625 125.75117 329.02814Q125.75117 328.45 125.36054 328.075Q124.96992 327.6844 124.34492 327.6844Q123.73554 327.6844 123.31367 328.075Q122.90742 328.46564 122.79804 329.23126L121.73554 329.04376Q121.92304 327.9969 122.61054 327.41876Q123.29804 326.825 124.31367 326.825Q125.01679 326.825 125.61054 327.1375Q126.20429 327.4344 126.51679 327.95Q126.82929 328.46564 126.82929 329.0594Q126.82929 329.60626 126.53242 330.075Q126.23554 330.52814 125.65742 330.79376Q126.40742 330.96564 126.82929 331.52814Q127.25117 332.075 127.25117 332.91876Q127.25117 334.04376 126.42304 334.825Q125.61054 335.60626 124.36054 335.60626Q123.23554 335.60626 122.48554 334.9344Q121.73554 334.2469 121.62617 333.1844ZM134.21991 334.5125L134.37616 335.4344Q133.92303 335.52814 133.57928 335.52814Q133.00116 335.52814 132.68866 335.35626Q132.37616 335.16876 132.23553 334.8719Q132.11053 334.575 132.11053 333.6219L132.11053 330.04376L131.34491 330.04376L131.34491 329.23126L132.11053 329.23126L132.11053 327.6844L133.15741 327.0594L133.15741 329.23126L134.21991 329.23126L134.21991 330.04376L133.15741 330.04376L133.15741 333.6844Q133.15741 334.1375 133.20428 334.2625Q133.26678 334.3875 133.39178 334.46564Q133.51678 334.54376 133.75116 334.54376Q133.93866 334.54376 134.21991 334.5125ZM134.92303 328.075L134.92303 326.85626L135.98553 326.85626L135.98553 328.075L134.92303 328.075ZM134.92303 335.45L134.92303 329.23126L135.98553 329.23126L135.98553 335.45L134.92303 335.45ZM137.92303 335.45L137.92303 329.23126L138.86053 329.23126L138.86053 330.10626Q139.15741 329.6375 139.64178 329.3719Q140.12616 329.09064 140.75116 329.09064Q141.43866 329.09064 141.87616 329.3719Q142.32928 329.65314 142.50116 330.16876Q143.25116 329.09064 144.42303 329.09064Q145.36053 329.09064 145.84491 329.60626Q146.34491 330.10626 146.34491 331.1844L146.34491 335.45L145.29803 335.45L145.29803 331.52814Q145.29803 330.90314 145.18866 330.6219Q145.09491 330.34064 144.82928 330.16876Q144.56366 329.9969 144.18866 329.9969Q143.53241 329.9969 143.09491 330.4344Q142.67303 330.8719 142.67303 331.84064L142.67303 335.45L141.61053 335.45L141.61053 331.40314Q141.61053 330.7 141.34491 330.35626Q141.09491 329.9969 140.51678 329.9969Q140.06366 329.9969 139.68866 330.23126Q139.31366 330.46564 139.14178 330.91876Q138.96991 331.3719 138.96991 332.21564L138.96991 335.45L137.92303 335.45ZM153.17303 333.45L154.26678 333.575Q154.01678 334.52814 153.31366 335.0594Q152.61053 335.59064 151.53241 335.59064Q150.17303 335.59064 149.36053 334.7469Q148.56366 333.90314 148.56366 332.3875Q148.56366 330.825 149.37616 329.96564Q150.18866 329.09064 151.46991 329.09064Q152.71991 329.09064 153.50116 329.9344Q154.29803 330.77814 154.29803 332.325Q154.29803 332.41876 154.29803 332.60626L149.65741 332.60626Q149.71991 333.6375 150.23553 334.1844Q150.75116 334.71564 151.53241 334.71564Q152.11053 334.71564 152.51678 334.41876Q152.93866 334.10626 153.17303 333.45ZM149.71991 331.7469L153.18866 331.7469Q153.12616 330.95 152.79803 330.5594Q152.28241 329.95 151.48553 329.95Q150.75116 329.95 150.25116 330.4344Q149.76678 330.91876 149.71991 331.7469ZM155.50116 333.59064L156.53241 333.4344Q156.62616 334.0594 157.01678 334.3875Q157.42303 334.71564 158.15741 334.71564Q158.87616 334.71564 159.21991 334.4344Q159.57928 334.1375 159.57928 333.73126Q159.57928 333.3719 159.26678 333.16876Q159.04803 333.02814 158.18866 332.8094Q157.03241 332.5125 156.57928 332.3094Q156.14178 332.09064 155.90741 331.71564Q155.67303 331.34064 155.67303 330.8719Q155.67303 330.46564 155.86053 330.10626Q156.04803 329.7469 156.37616 329.5125Q156.62616 329.34064 157.04803 329.21564Q157.46991 329.09064 157.96991 329.09064Q158.68866 329.09064 159.23553 329.3094Q159.79803 329.5125 160.06366 329.8719Q160.32928 330.23126 160.42303 330.825L159.39178 330.96564Q159.32928 330.4969 158.98553 330.23126Q158.65741 329.95 158.03241 329.95Q157.31366 329.95 157.00116 330.2Q156.68866 330.4344 156.68866 330.7625Q156.68866 330.96564 156.81366 331.1219Q156.95428 331.29376 157.21991 331.40314Q157.37616 331.46564 158.15741 331.66876Q159.28241 331.98126 159.71991 332.16876Q160.15741 332.35626 160.40741 332.71564Q160.65741 333.075 160.65741 333.6219Q160.65741 334.15314 160.34491 334.6219Q160.04803 335.075 159.46991 335.34064Q158.89178 335.59064 158.15741 335.59064Q156.93866 335.59064 156.29803 335.09064Q155.67303 334.575 155.50116 333.59064ZM169.98553 334.6844Q169.39178 335.1844 168.84491 335.3875Q168.31366 335.59064 167.68866 335.59064Q166.65741 335.59064 166.11053 335.09064Q165.56366 334.59064 165.56366 333.8094Q165.56366 333.35626 165.76678 332.98126Q165.96991 332.59064 166.31366 332.3719Q166.65741 332.1375 167.07928 332.02814Q167.37616 331.9344 168.01678 331.85626Q169.28241 331.71564 169.89178 331.4969Q169.89178 331.27814 169.89178 331.23126Q169.89178 330.575 169.59491 330.3094Q169.18866 329.96564 168.39178 329.96564Q167.65741 329.96564 167.29803 330.23126Q166.93866 330.48126 166.76678 331.1375L165.73553 330.9969Q165.87616 330.34064 166.20428 329.9344Q166.53241 329.52814 167.14178 329.3094Q167.75116 329.09064 168.54803 329.09064Q169.34491 329.09064 169.84491 329.27814Q170.34491 329.46564 170.57928 329.7469Q170.81366 330.02814 170.90741 330.46564Q170.95428 330.73126 170.95428 331.4344L170.95428 332.84064Q170.95428 334.3094 171.01678 334.7Q171.09491 335.09064 171.29803 335.45L170.18866 335.45Q170.03241 335.1219 169.98553 334.6844ZM169.89178 332.325Q169.31366 332.5594 168.17303 332.73126Q167.51678 332.825 167.25116 332.95Q166.98553 333.0594 166.82928 333.27814Q166.68866 333.4969 166.68866 333.77814Q166.68866 334.2 167.00116 334.48126Q167.32928 334.7625 167.93866 334.7625Q168.54803 334.7625 169.01678 334.4969Q169.50116 334.23126 169.71991 333.7625Q169.89178 333.40314 169.89178 332.71564L169.89178 332.325Z" fill-rule="nonzero"/><path fill="#000000" d="M128.56366 349.45L126.65742 343.23126L127.75117 343.23126L128.73553 346.825L129.11053 348.15314Q129.14178 348.0594 129.43866 346.8719L130.42303 343.23126L131.50116 343.23126L132.43866 346.84064L132.75116 348.02814L133.11053 346.825L134.17303 343.23126L135.20428 343.23126L133.25116 349.45L132.15741 349.45L131.17303 345.71564L130.92303 344.66876L129.67303 349.45L128.56366 349.45ZM140.67303 347.45L141.76678 347.575Q141.51678 348.52814 140.81366 349.0594Q140.11053 349.59064 139.03241 349.59064Q137.67303 349.59064 136.86053 348.7469Q136.06366 347.90314 136.06366 346.3875Q136.06366 344.825 136.87616 343.96564Q137.68866 343.09064 138.96991 343.09064Q140.21991 343.09064 141.00116 343.9344Q141.79803 344.77814 141.79803 346.325Q141.79803 346.41876 141.79803 346.60626L137.15741 346.60626Q137.21991 347.6375 137.73553 348.1844Q138.25116 348.71564 139.03241 348.71564Q139.61053 348.71564 140.01678 348.41876Q140.43866 348.10626 140.67303 347.45ZM137.21991 345.7469L140.68866 345.7469Q140.62616 344.95 140.29803 344.5594Q139.78241 343.95 138.98553 343.95Q138.25116 343.95 137.75116 344.4344Q137.26678 344.91876 137.21991 345.7469ZM147.67303 347.45L148.76678 347.575Q148.51678 348.52814 147.81366 349.0594Q147.11053 349.59064 146.03241 349.59064Q144.67303 349.59064 143.86053 348.7469Q143.06366 347.90314 143.06366 346.3875Q143.06366 344.825 143.87616 343.96564Q144.68866 343.09064 145.96991 343.09064Q147.21991 343.09064 148.00116 343.9344Q148.79803 344.77814 148.79803 346.325Q148.79803 346.41876 148.79803 346.60626L144.15741 346.60626Q144.21991 347.6375 144.73553 348.1844Q145.25116 348.71564 146.03241 348.71564Q146.61053 348.71564 147.01678 348.41876Q147.43866 348.10626 147.67303 347.45ZM144.21991 345.7469L147.68866 345.7469Q147.62616 344.95 147.29803 344.5594Q146.78241 343.95 145.98553 343.95Q145.25116 343.95 144.75116 344.4344Q144.26678 344.91876 144.21991 345.7469ZM150.42303 349.45L150.42303 340.85626L151.48553 340.85626L151.48553 345.7625L153.96991 343.23126L155.34491 343.23126L152.95428 345.52814L155.57928 349.45L154.28241 349.45L152.21991 346.2625L151.48553 346.98126L151.48553 349.45L150.42303 349.45Z" fill-rule="nonzero"/><path fill="#000000" d="M204.81308 333.2L205.92245 333.10626Q206.04745 333.91876 206.48495 334.325Q206.93808 334.73126 207.5787 334.73126Q208.3287 334.73126 208.85995 334.15314Q209.3912 333.575 209.3912 332.6375Q209.3912 331.73126 208.87558 331.21564Q208.37558 330.6844 207.54745 330.6844Q207.04745 330.6844 206.62558 330.91876Q206.21933 331.15314 205.98495 331.5125L205.00058 331.3875L205.8287 326.98126L210.10995 326.98126L210.10995 327.98126L206.67245 327.98126L206.21933 330.29376Q206.98495 329.7469 207.8287 329.7469Q208.9537 329.7469 209.71933 330.52814Q210.50058 331.3094 210.50058 332.54376Q210.50058 333.7 209.8287 334.5594Q209.00058 335.59064 207.5787 335.59064Q206.40683 335.59064 205.65683 334.9344Q204.92245 334.27814 204.81308 333.2ZM211.68808 332.8719L211.68808 331.8094L214.93808 331.8094L214.93808 332.8719L211.68808 332.8719ZM221.28183 328.96564L220.23495 329.04376Q220.09433 328.41876 219.84433 328.1375Q219.40683 327.6844 218.78183 327.6844Q218.28183 327.6844 217.8912 327.96564Q217.40683 328.34064 217.10995 329.04376Q216.8287 329.73126 216.81308 331.0125Q217.18808 330.4344 217.73495 330.15314Q218.29745 329.8719 218.90683 329.8719Q219.9537 329.8719 220.68808 330.65314Q221.43808 331.4344 221.43808 332.65314Q221.43808 333.46564 221.0787 334.16876Q220.73495 334.85626 220.12558 335.23126Q219.5162 335.59064 218.75058 335.59064Q217.42245 335.59064 216.59433 334.6219Q215.7662 333.65314 215.7662 331.4344Q215.7662 328.9344 216.68808 327.8094Q217.48495 326.825 218.84433 326.825Q219.85995 326.825 220.50058 327.40314Q221.15683 327.96564 221.28183 328.96564ZM216.98495 332.66876Q216.98495 333.21564 217.2037 333.71564Q217.43808 334.2 217.84433 334.46564Q218.2662 334.73126 218.73495 334.73126Q219.3912 334.73126 219.87558 334.2Q220.35995 333.65314 220.35995 332.73126Q220.35995 331.84064 219.87558 331.325Q219.40683 330.8094 218.68808 330.8094Q217.96933 330.8094 217.46933 331.325Q216.98495 331.84064 216.98495 332.66876ZM228.40683 334.5125L228.56308 335.4344Q228.10995 335.52814 227.7662 335.52814Q227.18808 335.52814 226.87558 335.35626Q226.56308 335.16876 226.42245 334.8719Q226.29745 334.575 226.29745 333.6219L226.29745 330.04376L225.53183 330.04376L225.53183 329.23126L226.29745 329.23126L226.29745 327.6844L227.34433 327.0594L227.34433 329.23126L228.40683 329.23126L228.40683 330.04376L227.34433 330.04376L227.34433 333.6844Q227.34433 334.1375 227.3912 334.2625Q227.4537 334.3875 227.5787 334.46564Q227.7037 334.54376 227.93808 334.54376Q228.12558 334.54376 228.40683 334.5125ZM229.10995 328.075L229.10995 326.85626L230.17245 326.85626L230.17245 328.075L229.10995 328.075ZM229.10995 335.45L229.10995 329.23126L230.17245 329.23126L230.17245 335.45L229.10995 335.45ZM232.10995 335.45L232.10995 329.23126L233.04745 329.23126L233.04745 330.10626Q233.34433 329.6375 233.8287 329.3719Q234.31308 329.09064 234.93808 329.09064Q235.62558 329.09064 236.06308 329.3719Q236.5162 329.65314 236.68808 330.16876Q237.43808 329.09064 238.60995 329.09064Q239.54745 329.09064 240.03183 329.60626Q240.53183 330.10626 240.53183 331.1844L240.53183 335.45L239.48495 335.45L239.48495 331.52814Q239.48495 330.90314 239.37558 330.6219Q239.28183 330.34064 239.0162 330.16876Q238.75058 329.9969 238.37558 329.9969Q237.71933 329.9969 237.28183 330.4344Q236.85995 330.8719 236.85995 331.84064L236.85995 335.45L235.79745 335.45L235.79745 331.40314Q235.79745 330.7 235.53183 330.35626Q235.28183 329.9969 234.7037 329.9969Q234.25058 329.9969 233.87558 330.23126Q233.50058 330.46564 233.3287 330.91876Q233.15683 331.3719 233.15683 332.21564L233.15683 335.45L232.10995 335.45ZM247.35995 333.45L248.4537 333.575Q248.2037 334.52814 247.50058 335.0594Q246.79745 335.59064 245.71933 335.59064Q244.35995 335.59064 243.54745 334.7469Q242.75058 333.90314 242.75058 332.3875Q242.75058 330.825 243.56308 329.96564Q244.37558 329.09064 245.65683 329.09064Q246.90683 329.09064 247.68808 329.9344Q248.48495 330.77814 248.48495 332.325Q248.48495 332.41876 248.48495 332.60626L243.84433 332.60626Q243.90683 333.6375 244.42245 334.1844Q244.93808 334.71564 245.71933 334.71564Q246.29745 334.71564 246.7037 334.41876Q247.12558 334.10626 247.35995 333.45ZM243.90683 331.7469L247.37558 331.7469Q247.31308 330.95 246.98495 330.5594Q246.46933 329.95 245.67245 329.95Q244.93808 329.95 244.43808 330.4344Q243.9537 330.91876 243.90683 331.7469ZM249.68808 333.59064L250.71933 333.4344Q250.81308 334.0594 251.2037 334.3875Q251.60995 334.71564 252.34433 334.71564Q253.06308 334.71564 253.40683 334.4344Q253.7662 334.1375 253.7662 333.73126Q253.7662 333.3719 253.4537 333.16876Q253.23495 333.02814 252.37558 332.8094Q251.21933 332.5125 250.7662 332.3094Q250.3287 332.09064 250.09433 331.71564Q249.85995 331.34064 249.85995 330.8719Q249.85995 330.46564 250.04745 330.10626Q250.23495 329.7469 250.56308 329.5125Q250.81308 329.34064 251.23495 329.21564Q251.65683 329.09064 252.15683 329.09064Q252.87558 329.09064 253.42245 329.3094Q253.98495 329.5125 254.25058 329.8719Q254.5162 330.23126 254.60995 330.825L253.5787 330.96564Q253.5162 330.4969 253.17245 330.23126Q252.84433 329.95 252.21933 329.95Q251.50058 329.95 251.18808 330.2Q250.87558 330.4344 250.87558 330.7625Q250.87558 330.96564 251.00058 331.1219Q251.1412 331.29376 251.40683 331.40314Q251.56308 331.46564 252.34433 331.66876Q253.46933 331.98126 253.90683 332.16876Q254.34433 332.35626 254.59433 332.71564Q254.84433 333.075 254.84433 333.6219Q254.84433 334.15314 254.53183 334.6219Q254.23495 335.075 253.65683 335.34064Q253.0787 335.59064 252.34433 335.59064Q251.12558 335.59064 250.48495 335.09064Q249.85995 334.575 249.68808 333.59064ZM264.17245 334.6844Q263.5787 335.1844 263.03183 335.3875Q262.50058 335.59064 261.87558 335.59064Q260.84433 335.59064 260.29745 335.09064Q259.75058 334.59064 259.75058 333.8094Q259.75058 333.35626 259.9537 332.98126Q260.15683 332.59064 260.50058 332.3719Q260.84433 332.1375 261.2662 332.02814Q261.56308 331.9344 262.2037 331.85626Q263.46933 331.71564 264.0787 331.4969Q264.0787 331.27814 264.0787 331.23126Q264.0787 330.575 263.78183 330.3094Q263.37558 329.96564 262.5787 329.96564Q261.84433 329.96564 261.48495 330.23126Q261.12558 330.48126 260.9537 331.1375L259.92245 330.9969Q260.06308 330.34064 260.3912 329.9344Q260.71933 329.52814 261.3287 329.3094Q261.93808 329.09064 262.73495 329.09064Q263.53183 329.09064 264.03183 329.27814Q264.53183 329.46564 264.7662 329.7469Q265.00058 330.02814 265.09433 330.46564Q265.1412 330.73126 265.1412 331.4344L265.1412 332.84064Q265.1412 334.3094 265.2037 334.7Q265.28183 335.09064 265.48495 335.45L264.37558 335.45Q264.21933 335.1219 264.17245 334.6844ZM264.0787 332.325Q263.50058 332.5594 262.35995 332.73126Q261.7037 332.825 261.43808 332.95Q261.17245 333.0594 261.0162 333.27814Q260.87558 333.4969 260.87558 333.77814Q260.87558 334.2 261.18808 334.48126Q261.5162 334.7625 262.12558 334.7625Q262.73495 334.7625 263.2037 334.4969Q263.68808 334.23126 263.90683 333.7625Q264.0787 333.40314 264.0787 332.71564L264.0787 332.325Z" fill-rule="nonzero"/><path fill="#000000" d="M222.75058 349.45L220.84433 343.23126L221.93808 343.23126L222.92245 346.825L223.29745 348.15314Q223.3287 348.0594 223.62558 346.8719L224.60995 343.23126L225.68808 343.23126L226.62558 346.84064L226.93808 348.02814L227.29745 346.825L228.35995 343.23126L229.3912 343.23126L227.43808 349.45L226.34433 349.45L225.35995 345.71564L225.10995 344.66876L223.85995 349.45L222.75058 349.45ZM234.85995 347.45L235.9537 347.575Q235.7037 348.52814 235.00058 349.0594Q234.29745 349.59064 233.21933 349.59064Q231.85995 349.59064 231.04745 348.7469Q230.25058 347.90314 230.25058 346.3875Q230.25058 344.825 231.06308 343.96564Q231.87558 343.09064 233.15683 343.09064Q234.40683 343.09064 235.18808 343.9344Q235.98495 344.77814 235.98495 346.325Q235.98495 346.41876 235.98495 346.60626L231.34433 346.60626Q231.40683 347.6375 231.92245 348.1844Q232.43808 348.71564 233.21933 348.71564Q233.79745 348.71564 234.2037 348.41876Q234.62558 348.10626 234.85995 347.45ZM231.40683 345.7469L234.87558 345.7469Q234.81308 344.95 234.48495 344.5594Q233.96933 343.95 233.17245 343.95Q232.43808 343.95 231.93808 344.4344Q231.4537 344.91876 231.40683 345.7469ZM241.85995 347.45L242.9537 347.575Q242.7037 348.52814 242.00058 349.0594Q241.29745 349.59064 240.21933 349.59064Q238.85995 349.59064 238.04745 348.7469Q237.25058 347.90314 237.25058 346.3875Q237.25058 344.825 238.06308 343.96564Q238.87558 343.09064 240.15683 343.09064Q241.40683 343.09064 242.18808 343.9344Q242.98495 344.77814 242.98495 346.325Q242.98495 346.41876 242.98495 346.60626L238.34433 346.60626Q238.40683 347.6375 238.92245 348.1844Q239.43808 348.71564 240.21933 348.71564Q240.79745 348.71564 241.2037 348.41876Q241.62558 348.10626 241.85995 347.45ZM238.40683 345.7469L241.87558 345.7469Q241.81308 344.95 241.48495 344.5594Q240.96933 343.95 240.17245 343.95Q239.43808 343.95 238.93808 344.4344Q238.4537 344.91876 238.40683 345.7469ZM244.60995 349.45L244.60995 340.85626L245.67245 340.85626L245.67245 345.7625L248.15683 343.23126L249.53183 343.23126L247.1412 345.52814L249.7662 349.45L248.46933 349.45L246.40683 346.2625L245.67245 346.98126L245.67245 349.45L244.60995 349.45Z" fill-rule="nonzero"/><path fill="#000000" d="M306.45312 335.45L306.45312 326.85626L312.65625 326.85626L312.65625 327.8719L307.59375 327.8719L307.59375 330.4969L312.34375 330.4969L312.34375 331.5125L307.59375 331.5125L307.59375 334.4344L312.85938 334.4344L312.85938 335.45L306.45312 335.45ZM316.01562 335.45L313.65625 329.23126L314.76562 329.23126L316.10938 332.95Q316.3125 333.5594 316.5 334.2Q316.64062 333.71564 316.89062 333.02814L318.28125 329.23126L319.35938 329.23126L317.0 335.45L316.01562 335.45ZM323.54688 333.45L324.64062 333.575Q324.39062 334.52814 323.6875 335.0594Q322.98438 335.59064 321.90625 335.59064Q320.54688 335.59064 319.73438 334.7469Q318.9375 333.90314 318.9375 332.3875Q318.9375 330.825 319.75 329.96564Q320.5625 329.09064 321.84375 329.09064Q323.09375 329.09064 323.875 329.9344Q324.67188 330.77814 324.67188 332.325Q324.67188 332.41876 324.67188 332.60626L320.03125 332.60626Q320.09375 333.6375 320.60938 334.1844Q321.125 334.71564 321.90625 334.71564Q322.48438 334.71564 322.89062 334.41876Q323.3125 334.10626 323.54688 333.45ZM320.09375 331.7469L323.5625 331.7469Q323.5 330.95 323.17188 330.5594Q322.65625 329.95 321.85938 329.95Q321.125 329.95 320.625 330.4344Q320.14062 330.91876 320.09375 331.7469ZM326.28125 335.45L326.28125 329.23126L327.23438 329.23126L327.23438 330.16876Q327.59375 329.5125 327.89062 329.3094Q328.20312 329.09064 328.57812 329.09064Q329.10938 329.09064 329.65625 329.41876L329.29688 330.40314Q328.90625 330.16876 328.53125 330.16876Q328.17188 330.16876 327.89062 330.3875Q327.625 330.59064 327.51562 330.96564Q327.32812 331.52814 327.32812 332.1844L327.32812 335.45L326.28125 335.45ZM330.25 337.84064L330.125 336.85626Q330.46875 336.95 330.73438 336.95Q331.07812 336.95 331.28125 336.825Q331.5 336.71564 331.64062 336.5125Q331.73438 336.34064 331.96875 335.71564Q331.98438 335.6375 332.0625 335.46564L329.6875 329.23126L330.82812 329.23126L332.125 332.825Q332.375 333.5125 332.57812 334.27814Q332.76562 333.54376 333.01562 332.85626L334.34375 329.23126L335.39062 329.23126L333.03125 335.5594Q332.64062 336.575 332.4375 336.96564Q332.15625 337.4969 331.78125 337.73126Q331.42188 337.98126 330.92188 337.98126Q330.625 337.98126 330.25 337.84064ZM339.32812 335.45L339.32812 334.66876Q338.73438 335.59064 337.59375 335.59064Q336.84375 335.59064 336.21875 335.1844Q335.59375 334.7625 335.25 334.02814Q334.90625 333.29376 334.90625 332.34064Q334.90625 331.41876 335.21875 330.65314Q335.53125 329.8875 336.15625 329.4969Q336.78125 329.09064 337.54688 329.09064Q338.10938 329.09064 338.54688 329.325Q338.98438 329.5594 339.26562 329.9344L339.26562 326.85626L340.3125 326.85626L340.3125 335.45L339.32812 335.45ZM336.0 332.34064Q336.0 333.54376 336.5 334.1375Q337.0 334.71564 337.6875 334.71564Q338.375 334.71564 338.85938 334.15314Q339.34375 333.59064 339.34375 332.4344Q339.34375 331.15314 338.84375 330.5594Q338.35938 329.96564 337.64062 329.96564Q336.9375 329.96564 336.46875 330.54376Q336.0 331.10626 336.0 332.34064ZM346.35938 334.6844Q345.76562 335.1844 345.21875 335.3875Q344.6875 335.59064 344.0625 335.59064Q343.03125 335.59064 342.48438 335.09064Q341.9375 334.59064 341.9375 333.8094Q341.9375 333.35626 342.14062 332.98126Q342.34375 332.59064 342.6875 332.3719Q343.03125 332.1375 343.45312 332.02814Q343.75 331.9344 344.39062 331.85626Q345.65625 331.71564 346.26562 331.4969Q346.26562 331.27814 346.26562 331.23126Q346.26562 330.575 345.96875 330.3094Q345.5625 329.96564 344.76562 329.96564Q344.03125 329.96564 343.67188 330.23126Q343.3125 330.48126 343.14062 331.1375L342.10938 330.9969Q342.25 330.34064 342.57812 329.9344Q342.90625 329.52814 343.51562 329.3094Q344.125 329.09064 344.92188 329.09064Q345.71875 329.09064 346.21875 329.27814Q346.71875 329.46564 346.95312 329.7469Q347.1875 330.02814 347.28125 330.46564Q347.32812 330.73126 347.32812 331.4344L347.32812 332.84064Q347.32812 334.3094 347.39062 334.7Q347.46875 335.09064 347.67188 335.45L346.5625 335.45Q346.40625 335.1219 346.35938 334.6844ZM346.26562 332.325Q345.6875 332.5594 344.54688 332.73126Q343.89062 332.825 343.625 332.95Q343.35938 333.0594 343.20312 333.27814Q343.0625 333.4969 343.0625 333.77814Q343.0625 334.2 343.375 334.48126Q343.70312 334.7625 344.3125 334.7625Q344.92188 334.7625 345.39062 334.4969Q345.875 334.23126 346.09375 333.7625Q346.26562 333.40314 346.26562 332.71564L346.26562 332.325ZM349.25 337.84064L349.125 336.85626Q349.46875 336.95 349.73438 336.95Q350.07812 336.95 350.28125 336.825Q350.5 336.71564 350.64062 336.5125Q350.73438 336.34064 350.96875 335.71564Q350.98438 335.6375 351.0625 335.46564L348.6875 329.23126L349.82812 329.23126L351.125 332.825Q351.375 333.5125 351.57812 334.27814Q351.76562 333.54376 352.01562 332.85626L353.34375 329.23126L354.39062 329.23126L352.03125 335.5594Q351.64062 336.575 351.4375 336.96564Q351.15625 337.4969 350.78125 337.73126Q350.42188 337.98126 349.92188 337.98126Q349.625 337.98126 349.25 337.84064Z" fill-rule="nonzero"/><path fill="#000000" d="M388.76505 331.2625Q388.76505 329.1219 389.90567 327.91876Q391.06192 326.7 392.87442 326.7Q394.07755 326.7 395.03067 327.27814Q395.9838 327.84064 396.4838 328.85626Q396.9838 329.8719 396.9838 331.16876Q396.9838 332.46564 396.45255 333.4969Q395.9213 334.52814 394.95255 335.0594Q393.99942 335.59064 392.87442 335.59064Q391.65567 335.59064 390.70255 335.0125Q389.74942 334.41876 389.24942 333.41876Q388.76505 332.40314 388.76505 331.2625ZM389.93692 331.27814Q389.93692 332.84064 390.76505 333.73126Q391.6088 334.6219 392.87442 334.6219Q394.15567 334.6219 394.9838 333.73126Q395.81192 332.825 395.81192 331.15314Q395.81192 330.10626 395.45255 329.325Q395.1088 328.54376 394.4213 328.1219Q393.7338 327.6844 392.89005 327.6844Q391.68692 327.6844 390.81192 328.5125Q389.93692 329.34064 389.93692 331.27814ZM397.9838 335.45L397.9838 329.23126L398.9213 329.23126L398.9213 330.10626Q399.6088 329.09064 400.90567 329.09064Q401.46817 329.09064 401.93692 329.29376Q402.4213 329.4969 402.65567 329.825Q402.89005 330.15314 402.9838 330.59064Q403.03067 330.8875 403.03067 331.6219L403.03067 335.45L401.9838 335.45L401.9838 331.66876Q401.9838 331.0125 401.8588 330.7Q401.7338 330.3875 401.4213 330.2Q401.1088 329.9969 400.68692 329.9969Q400.01505 329.9969 399.51505 330.4344Q399.03067 330.85626 399.03067 332.04376L399.03067 335.45L397.9838 335.45ZM409.0463 333.16876L410.07755 333.3094Q409.90567 334.3719 409.20255 334.98126Q408.49942 335.59064 407.4838 335.59064Q406.20255 335.59064 405.4213 334.7625Q404.65567 333.91876 404.65567 332.35626Q404.65567 331.35626 404.9838 330.60626Q405.32755 329.84064 405.99942 329.46564Q406.68692 329.09064 407.49942 329.09064Q408.49942 329.09064 409.14005 329.60626Q409.7963 330.10626 409.9838 331.0594L408.95255 331.21564Q408.81192 330.59064 408.43692 330.27814Q408.06192 329.95 407.53067 329.95Q406.7338 329.95 406.2338 330.52814Q405.7338 331.09064 405.7338 332.325Q405.7338 333.59064 406.21817 334.15314Q406.70255 334.71564 407.46817 334.71564Q408.09317 334.71564 408.49942 334.34064Q408.9213 333.96564 409.0463 333.16876ZM415.2338 333.45L416.32755 333.575Q416.07755 334.52814 415.37442 335.0594Q414.6713 335.59064 413.59317 335.59064Q412.2338 335.59064 411.4213 334.7469Q410.62442 333.90314 410.62442 332.3875Q410.62442 330.825 411.43692 329.96564Q412.24942 329.09064 413.53067 329.09064Q414.78067 329.09064 415.56192 329.9344Q416.3588 330.77814 416.3588 332.325Q416.3588 332.41876 416.3588 332.60626L411.71817 332.60626Q411.78067 333.6375 412.2963 334.1844Q412.81192 334.71564 413.59317 334.71564Q414.1713 334.71564 414.57755 334.41876Q414.99942 334.10626 415.2338 333.45ZM411.78067 331.7469L415.24942 331.7469Q415.18692 330.95 414.8588 330.5594Q414.34317 329.95 413.5463 329.95Q412.81192 329.95 412.31192 330.4344Q411.82755 330.91876 411.78067 331.7469ZM425.0463 334.6844Q424.45255 335.1844 423.90567 335.3875Q423.37442 335.59064 422.74942 335.59064Q421.71817 335.59064 421.1713 335.09064Q420.62442 334.59064 420.62442 333.8094Q420.62442 333.35626 420.82755 332.98126Q421.03067 332.59064 421.37442 332.3719Q421.71817 332.1375 422.14005 332.02814Q422.43692 331.9344 423.07755 331.85626Q424.34317 331.71564 424.95255 331.4969Q424.95255 331.27814 424.95255 331.23126Q424.95255 330.575 424.65567 330.3094Q424.24942 329.96564 423.45255 329.96564Q422.71817 329.96564 422.3588 330.23126Q421.99942 330.48126 421.82755 331.1375L420.7963 330.9969Q420.93692 330.34064 421.26505 329.9344Q421.59317 329.52814 422.20255 329.3094Q422.81192 329.09064 423.6088 329.09064Q424.40567 329.09064 424.90567 329.27814Q425.40567 329.46564 425.64005 329.7469Q425.87442 330.02814 425.96817 330.46564Q426.01505 330.73126 426.01505 331.4344L426.01505 332.84064Q426.01505 334.3094 426.07755 334.7Q426.15567 335.09064 426.3588 335.45L425.24942 335.45Q425.09317 335.1219 425.0463 334.6844ZM424.95255 332.325Q424.37442 332.5594 423.2338 332.73126Q422.57755 332.825 422.31192 332.95Q422.0463 333.0594 421.89005 333.27814Q421.74942 333.4969 421.74942 333.77814Q421.74942 334.2 422.06192 334.48126Q422.39005 334.7625 422.99942 334.7625Q423.6088 334.7625 424.07755 334.4969Q424.56192 334.23126 424.78067 333.7625Q424.95255 333.40314 424.95255 332.71564L424.95255 332.325ZM432.12442 335.45L430.21817 329.23126L431.31192 329.23126L432.2963 332.825L432.6713 334.15314Q432.70255 334.0594 432.99942 332.8719L433.9838 329.23126L435.06192 329.23126L435.99942 332.84064L436.31192 334.02814L436.6713 332.825L437.7338 329.23126L438.76505 329.23126L436.81192 335.45L435.71817 335.45L434.7338 331.71564L434.4838 330.66876L433.2338 335.45L432.12442 335.45ZM444.2338 333.45L445.32755 333.575Q445.07755 334.52814 444.37442 335.0594Q443.6713 335.59064 442.59317 335.59064Q441.2338 335.59064 440.4213 334.7469Q439.62442 333.90314 439.62442 332.3875Q439.62442 330.825 440.43692 329.96564Q441.24942 329.09064 442.53067 329.09064Q443.78067 329.09064 444.56192 329.9344Q445.3588 330.77814 445.3588 332.325Q445.3588 332.41876 445.3588 332.60626L440.71817 332.60626Q440.78067 333.6375 441.2963 334.1844Q441.81192 334.71564 442.59317 334.71564Q443.1713 334.71564 443.57755 334.41876Q443.99942 334.10626 444.2338 333.45ZM440.78067 331.7469L444.24942 331.7469Q444.18692 330.95 443.8588 330.5594Q443.34317 329.95 442.5463 329.95Q441.81192 329.95 441.31192 330.4344Q440.82755 330.91876 440.78067 331.7469ZM451.2338 333.45L452.32755 333.575Q452.07755 334.52814 451.37442 335.0594Q450.6713 335.59064 449.59317 335.59064Q448.2338 335.59064 447.4213 334.7469Q446.62442 333.90314 446.62442 332.3875Q446.62442 330.825 447.43692 329.96564Q448.24942 329.09064 449.53067 329.09064Q450.78067 329.09064 451.56192 329.9344Q452.3588 330.77814 452.3588 332.325Q452.3588 332.41876 452.3588 332.60626L447.71817 332.60626Q447.78067 333.6375 448.2963 334.1844Q448.81192 334.71564 449.59317 334.71564Q450.1713 334.71564 450.57755 334.41876Q450.99942 334.10626 451.2338 333.45ZM447.78067 331.7469L451.24942 331.7469Q451.18692 330.95 450.8588 330.5594Q450.34317 329.95 449.5463 329.95Q448.81192 329.95 448.31192 330.4344Q447.82755 330.91876 447.78067 331.7469ZM453.9838 335.45L453.9838 326.85626L455.0463 326.85626L455.0463 331.7625L457.53067 329.23126L458.90567 329.23126L456.51505 331.52814L459.14005 335.45L457.84317 335.45L455.78067 332.2625L455.0463 332.98126L455.0463 335.45L453.9838 335.45Z" fill-rule="nonzero"/><path fill="#000000" d="M488.49884 335.45L488.49884 326.85626L489.62384 326.85626L489.62384 335.45L488.49884 335.45ZM498.20197 335.45L498.20197 334.66876Q497.60822 335.59064 496.4676 335.59064Q495.7176 335.59064 495.0926 335.1844Q494.4676 334.7625 494.12384 334.02814Q493.7801 333.29376 493.7801 332.34064Q493.7801 331.41876 494.0926 330.65314Q494.4051 329.8875 495.0301 329.4969Q495.6551 329.09064 496.42072 329.09064Q496.98322 329.09064 497.42072 329.325Q497.85822 329.5594 498.13947 329.9344L498.13947 326.85626L499.18634 326.85626L499.18634 335.45L498.20197 335.45ZM494.87384 332.34064Q494.87384 333.54376 495.37384 334.1375Q495.87384 334.71564 496.56134 334.71564Q497.24884 334.71564 497.73322 334.15314Q498.2176 333.59064 498.2176 332.4344Q498.2176 331.15314 497.7176 330.5594Q497.23322 329.96564 496.51447 329.96564Q495.81134 329.96564 495.3426 330.54376Q494.87384 331.10626 494.87384 332.34064ZM500.7801 332.34064Q500.7801 330.60626 501.73322 329.77814Q502.5301 329.09064 503.68634 329.09064Q504.9676 329.09064 505.7801 329.9344Q506.60822 330.7625 506.60822 332.2469Q506.60822 333.45 506.24884 334.1375Q505.88947 334.825 505.18634 335.21564Q504.49884 335.59064 503.68634 335.59064Q502.38947 335.59064 501.57697 334.7625Q500.7801 333.91876 500.7801 332.34064ZM501.85822 332.34064Q501.85822 333.52814 502.37384 334.1219Q502.9051 334.71564 503.68634 334.71564Q504.48322 334.71564 504.99884 334.1219Q505.51447 333.52814 505.51447 332.3094Q505.51447 331.15314 504.98322 330.5594Q504.4676 329.96564 503.68634 329.96564Q502.9051 329.96564 502.37384 330.5594Q501.85822 331.1375 501.85822 332.34064ZM508.17072 335.45L508.17072 329.23126L509.10822 329.23126L509.10822 330.10626Q509.79572 329.09064 511.0926 329.09064Q511.6551 329.09064 512.12384 329.29376Q512.6082 329.4969 512.8426 329.825Q513.07697 330.15314 513.1707 330.59064Q513.2176 330.8875 513.2176 331.6219L513.2176 335.45L512.1707 335.45L512.1707 331.66876Q512.1707 331.0125 512.0457 330.7Q511.92072 330.3875 511.60822 330.2Q511.29572 329.9969 510.87384 329.9969Q510.20197 329.9969 509.70197 330.4344Q509.2176 330.85626 509.2176 332.04376L509.2176 335.45L508.17072 335.45ZM515.1707 329.90314L514.9051 328.29376L514.9051 326.85626L516.1082 326.85626L516.1082 328.29376L515.82697 329.90314L515.1707 329.90314ZM519.4676 334.5125L519.62384 335.4344Q519.1707 335.52814 518.82697 335.52814Q518.24884 335.52814 517.93634 335.35626Q517.62384 335.16876 517.4832 334.8719Q517.3582 334.575 517.3582 333.6219L517.3582 330.04376L516.5926 330.04376L516.5926 329.23126L517.3582 329.23126L517.3582 327.6844L518.4051 327.0594L518.4051 329.23126L519.4676 329.23126L519.4676 330.04376L518.4051 330.04376L518.4051 333.6844Q518.4051 334.1375 518.45197 334.2625Q518.51447 334.3875 518.63947 334.46564Q518.76447 334.54376 518.99884 334.54376Q519.18634 334.54376 519.4676 334.5125ZM527.2332 333.16876L528.26447 333.3094Q528.0926 334.3719 527.38947 334.98126Q526.68634 335.59064 525.6707 335.59064Q524.38947 335.59064 523.6082 334.7625Q522.8426 333.91876 522.8426 332.35626Q522.8426 331.35626 523.1707 330.60626Q523.51447 329.84064 524.18634 329.46564Q524.87384 329.09064 525.68634 329.09064Q526.68634 329.09064 527.32697 329.60626Q527.9832 330.10626 528.1707 331.0594L527.13947 331.21564Q526.99884 330.59064 526.62384 330.27814Q526.24884 329.95 525.7176 329.95Q524.9207 329.95 524.4207 330.52814Q523.9207 331.09064 523.9207 332.325Q523.9207 333.59064 524.4051 334.15314Q524.88947 334.71564 525.6551 334.71564Q526.2801 334.71564 526.68634 334.34064Q527.1082 333.96564 527.2332 333.16876ZM528.7801 332.34064Q528.7801 330.60626 529.7332 329.77814Q530.5301 329.09064 531.68634 329.09064Q532.9676 329.09064 533.7801 329.9344Q534.6082 330.7625 534.6082 332.2469Q534.6082 333.45 534.24884 334.1375Q533.88947 334.825 533.18634 335.21564Q532.49884 335.59064 531.68634 335.59064Q530.38947 335.59064 529.57697 334.7625Q528.7801 333.91876 528.7801 332.34064ZM529.8582 332.34064Q529.8582 333.52814 530.37384 334.1219Q530.9051 334.71564 531.68634 334.71564Q532.4832 334.71564 532.99884 334.1219Q533.51447 333.52814 533.51447 332.3094Q533.51447 331.15314 532.9832 330.5594Q532.4676 329.96564 531.68634 329.96564Q530.9051 329.96564 530.37384 330.5594Q529.8582 331.1375 529.8582 332.34064ZM535.7801 332.34064Q535.7801 330.60626 536.7332 329.77814Q537.5301 329.09064 538.68634 329.09064Q539.9676 329.09064 540.7801 329.9344Q541.6082 330.7625 541.6082 332.2469Q541.6082 333.45 541.24884 334.1375Q540.88947 334.825 540.18634 335.21564Q539.49884 335.59064 538.68634 335.59064Q537.38947 335.59064 536.57697 334.7625Q535.7801 333.91876 535.7801 332.34064ZM536.8582 332.34064Q536.8582 333.52814 537.37384 334.1219Q537.9051 334.71564 538.68634 334.71564Q539.4832 334.71564 539.99884 334.1219Q540.51447 333.52814 540.51447 332.3094Q540.51447 331.15314 539.9832 330.5594Q539.4676 329.96564 538.68634 329.96564Q537.9051 329.96564 537.37384 330.5594Q536.8582 331.1375 536.8582 332.34064ZM543.1707 335.45L543.1707 326.85626L544.2332 326.85626L544.2332 331.7625L546.7176 329.23126L548.0926 329.23126L545.70197 331.52814L548.32697 335.45L547.0301 335.45L544.9676 332.2625L544.2332 332.98126L544.2332 335.45L543.1707 335.45Z" fill-rule="nonzero"/><path fill="#757575" d="M26.159374 37.55L26.159374 23.2375L28.05 23.2375L28.05 29.1125L35.4875 29.1125L35.4875 23.2375L37.378124 23.2375L37.378124 37.55L35.4875 37.55L35.4875 30.8L28.05 30.8L28.05 37.55L26.159374 37.55ZM38.221874 32.3625Q38.221874 29.4875 39.815624 28.096874Q41.159374 26.940624 43.08125 26.940624Q45.221874 26.940624 46.565624 28.346874Q47.925 29.753124 47.925 32.221874Q47.925 34.221874 47.33125 35.378124Q46.7375 36.51875 45.58125 37.159374Q44.440624 37.784374 43.08125 37.784374Q40.89375 37.784374 39.55 36.39375Q38.221874 34.9875 38.221874 32.3625ZM40.01875 32.3625Q40.01875 34.3625 40.878124 35.346874Q41.753124 36.33125 43.08125 36.33125Q44.39375 36.33125 45.253124 35.346874Q46.128124 34.346874 46.128124 32.3Q46.128124 30.378124 45.253124 29.39375Q44.378124 28.39375 43.08125 28.39375Q41.753124 28.39375 40.878124 29.39375Q40.01875 30.378124 40.01875 32.3625ZM51.784374 37.55L48.6125 27.175L50.425 27.175L52.08125 33.159374L52.690624 35.39375Q52.7375 35.221874 53.221874 33.253124L54.878124 27.175L56.690624 27.175L58.2375 33.190624L58.753124 35.175L59.346874 33.175L61.128124 27.175L62.83125 27.175L59.596874 37.55L57.76875 37.55L56.1125 31.33125L55.721874 29.565624L53.6125 37.55L51.784374 37.55ZM70.22188 32.3625Q70.22188 29.4875 71.81563 28.096874Q73.15938 26.940624 75.08125 26.940624Q77.22188 26.940624 78.56563 28.346874Q79.925 29.753124 79.925 32.221874Q79.925 34.221874 79.33125 35.378124Q78.7375 36.51875 77.58125 37.159374Q76.44063 37.784374 75.08125 37.784374Q72.89375 37.784374 71.55 36.39375Q70.22188 34.9875 70.22188 32.3625ZM72.01875 32.3625Q72.01875 34.3625 72.87813 35.346874Q73.75313 36.33125 75.08125 36.33125Q76.39375 36.33125 77.25313 35.346874Q78.12813 34.346874 78.12813 32.3Q78.12813 30.378124 77.25313 29.39375Q76.37813 28.39375 75.08125 28.39375Q73.75313 28.39375 72.87813 29.39375Q72.01875 30.378124 72.01875 32.3625ZM82.28438 37.55L82.28438 28.55L80.7375 28.55L80.7375 27.175L82.28438 27.175L82.28438 26.08125Q82.28438 25.034374 82.47188 24.51875Q82.72188 23.83125 83.3625 23.409374Q84.00313 22.9875 85.15938 22.9875Q85.90938 22.9875 86.8 23.159374L86.53438 24.690624Q85.9875 24.596874 85.50313 24.596874Q84.70625 24.596874 84.3625 24.940624Q84.03438 25.284374 84.03438 26.221874L84.03438 27.175L86.06563 27.175L86.06563 28.55L84.03438 28.55L84.03438 37.55L82.28438 37.55ZM91.70625 35.971874L91.95625 37.534374Q91.22188 37.690624 90.62813 37.690624Q89.675 37.690624 89.14375 37.39375Q88.62813 37.08125 88.40938 36.596874Q88.19063 36.096874 88.19063 34.51875L88.19063 28.55L86.90938 28.55L86.90938 27.175L88.19063 27.175L88.19063 24.6125L89.94063 23.55L89.94063 27.175L91.70625 27.175L91.70625 28.55L89.94063 28.55L89.94063 34.6125Q89.94063 35.3625 90.03438 35.58125Q90.12813 35.784374 90.33125 35.925Q90.55 36.05 90.94063 36.05Q91.22188 36.05 91.70625 35.971874ZM100.97188 34.20625L102.78438 34.440624Q102.3625 36.01875 101.19063 36.909374Q100.03438 37.784374 98.22188 37.784374Q95.95625 37.784374 94.6125 36.39375Q93.28438 34.9875 93.28438 32.45625Q93.28438 29.83125 94.62813 28.39375Q95.97188 26.940624 98.12813 26.940624Q100.20625 26.940624 101.51875 28.3625Q102.84688 29.76875 102.84688 32.346874Q102.84688 32.503124 102.83125 32.815624L95.09688 32.815624Q95.19063 34.51875 96.06563 35.425Q96.94063 36.33125 98.2375 36.33125Q99.20625 36.33125 99.87813 35.83125Q100.56563 35.315624 100.97188 34.20625ZM95.19063 31.3625L100.9875 31.3625Q100.87813 30.065624 100.33125 29.409374Q99.4875 28.39375 98.14375 28.39375Q96.94063 28.39375 96.1125 29.20625Q95.28438 30.003124 95.19063 31.3625ZM104.8625 37.55L104.8625 27.175L106.45625 27.175L106.45625 28.659374Q107.59688 26.940624 109.75313 26.940624Q110.69063 26.940624 111.47188 27.284374Q112.26875 27.6125 112.65938 28.159374Q113.05 28.70625 113.20625 29.45625Q113.3 29.95625 113.3 31.175L113.3 37.55L111.53438 37.55L111.53438 31.2375Q111.53438 30.159374 111.33125 29.628124Q111.12813 29.096874 110.59688 28.784374Q110.08125 28.471874 109.37813 28.471874Q108.25313 28.471874 107.44063 29.190624Q106.62813 29.89375 106.62813 31.878124L106.62813 37.55L104.8625 37.55ZM127.59688 37.55L127.59688 36.2375Q126.6125 37.784374 124.69063 37.784374Q123.45625 37.784374 122.40938 37.096874Q121.37813 36.409374 120.8 35.190624Q120.2375 33.971874 120.2375 32.378124Q120.2375 30.815624 120.75313 29.55Q121.26875 28.284374 122.3 27.6125Q123.34688 26.940624 124.6125 26.940624Q125.55 26.940624 126.28438 27.346874Q127.01875 27.7375 127.4875 28.3625L127.4875 23.2375L129.22188 23.2375L129.22188 37.55L127.59688 37.55ZM122.03438 32.378124Q122.03438 34.3625 122.87813 35.346874Q123.72188 36.33125 124.8625 36.33125Q126.01875 36.33125 126.81563 35.39375Q127.62813 34.45625 127.62813 32.51875Q127.62813 30.39375 126.8 29.39375Q125.9875 28.39375 124.78438 28.39375Q123.6125 28.39375 122.81563 29.3625Q122.03438 30.315624 122.03438 32.378124ZM131.22188 32.3625Q131.22188 29.4875 132.81563 28.096874Q134.15938 26.940624 136.08125 26.940624Q138.22188 26.940624 139.56563 28.346874Q140.925 29.753124 140.925 32.221874Q140.925 34.221874 140.33125 35.378124Q139.7375 36.51875 138.58125 37.159374Q137.44063 37.784374 136.08125 37.784374Q133.89375 37.784374 132.55 36.39375Q131.22188 34.9875 131.22188 32.3625ZM133.01875 32.3625Q133.01875 34.3625 133.87813 35.346874Q134.75313 36.33125 136.08125 36.33125Q137.39375 36.33125 138.25313 35.346874Q139.12813 34.346874 139.12813 32.3Q139.12813 30.378124 138.25313 29.39375Q137.37813 28.39375 136.08125 28.39375Q134.75313 28.39375 133.87813 29.39375Q133.01875 30.378124 133.01875 32.3625ZM148.78438 41.55L148.59688 39.89375Q149.175 40.05 149.59688 40.05Q150.19063 40.05 150.53438 39.846874Q150.89375 39.659374 151.1125 39.315624Q151.28438 39.05 151.65938 38.003124Q151.70625 37.846874 151.81563 37.565624L147.87813 27.175L149.76875 27.175L151.925 33.190624Q152.34688 34.33125 152.675 35.58125Q152.9875 34.378124 153.39375 33.221874L155.6125 27.175L157.37813 27.175L153.425 37.721874Q152.8 39.440624 152.44063 40.08125Q151.97188 40.95625 151.3625 41.346874Q150.76875 41.753124 149.925 41.753124Q149.40938 41.753124 148.78438 41.55ZM158.22188 32.3625Q158.22188 29.4875 159.81563 28.096874Q161.15938 26.940624 163.08125 26.940624Q165.22188 26.940624 166.56563 28.346874Q167.925 29.753124 167.925 32.221874Q167.925 34.221874 167.33125 35.378124Q166.7375 36.51875 165.58125 37.159374Q164.44063 37.784374 163.08125 37.784374Q160.89375 37.784374 159.55 36.39375Q158.22188 34.9875 158.22188 32.3625ZM160.01875 32.3625Q160.01875 34.3625 160.87813 35.346874Q161.75313 36.33125 163.08125 36.33125Q164.39375 36.33125 165.25313 35.346874Q166.12813 34.346874 166.12813 32.3Q166.12813 30.378124 165.25313 29.39375Q164.37813 28.39375 163.08125 28.39375Q161.75313 28.39375 160.87813 29.39375Q160.01875 30.378124 160.01875 32.3625ZM176.65938 37.55L176.65938 36.01875Q175.45625 37.784374 173.37813 37.784374Q172.45625 37.784374 171.65938 37.440624Q170.8625 37.08125 170.47188 36.55Q170.09688 36.01875 169.94063 35.2375Q169.83125 34.721874 169.83125 33.596874L169.83125 27.175L171.58125 27.175L171.58125 32.925Q171.58125 34.3 171.69063 34.784374Q171.8625 35.471874 172.39375 35.878124Q172.94063 36.26875 173.72188 36.26875Q174.51875 36.26875 175.20625 35.8625Q175.90938 35.45625 176.19063 34.76875Q176.4875 34.065624 176.4875 32.7375L176.4875 27.175L178.2375 27.175L178.2375 37.55L176.65938 37.55ZM192.64375 33.753124L194.3625 33.971874Q194.08125 35.76875 192.90938 36.784374Q191.75313 37.784374 190.05 37.784374Q187.925 37.784374 186.62813 36.39375Q185.33125 35.003124 185.33125 32.409374Q185.33125 30.721874 185.87813 29.471874Q186.44063 28.20625 187.58125 27.58125Q188.72188 26.940624 190.06563 26.940624Q191.75313 26.940624 192.81563 27.8Q193.89375 28.659374 194.20625 30.221874L192.4875 30.4875Q192.25313 29.440624 191.62813 28.925Q191.00313 28.39375 190.12813 28.39375Q188.8 28.39375 187.97188 29.346874Q187.14375 30.3 187.14375 32.346874Q187.14375 34.440624 187.94063 35.39375Q188.7375 36.33125 190.03438 36.33125Q191.06563 36.33125 191.75313 35.70625Q192.45625 35.065624 192.64375 33.753124ZM195.22188 32.3625Q195.22188 29.4875 196.81563 28.096874Q198.15938 26.940624 200.08125 26.940624Q202.22188 26.940624 203.56563 28.346874Q204.925 29.753124 204.925 32.221874Q204.925 34.221874 204.33125 35.378124Q203.7375 36.51875 202.58125 37.159374Q201.44063 37.784374 200.08125 37.784374Q197.89375 37.784374 196.55 36.39375Q195.22188 34.9875 195.22188 32.3625ZM197.01875 32.3625Q197.01875 34.3625 197.87813 35.346874Q198.75313 36.33125 200.08125 36.33125Q201.39375 36.33125 202.25313 35.346874Q203.12813 34.346874 203.12813 32.3Q203.12813 30.378124 202.25313 29.39375Q201.37813 28.39375 200.08125 28.39375Q198.75313 28.39375 197.87813 29.39375Q197.01875 30.378124 197.01875 32.3625ZM206.22188 32.3625Q206.22188 29.4875 207.81563 28.096874Q209.15938 26.940624 211.08125 26.940624Q213.22188 26.940624 214.56563 28.346874Q215.925 29.753124 215.925 32.221874Q215.925 34.221874 215.33125 35.378124Q214.7375 36.51875 213.58125 37.159374Q212.44063 37.784374 211.08125 37.784374Q208.89375 37.784374 207.55 36.39375Q206.22188 34.9875 206.22188 32.3625ZM208.01875 32.3625Q208.01875 34.3625 208.87813 35.346874Q209.75313 36.33125 211.08125 36.33125Q212.39375 36.33125 213.25313 35.346874Q214.12813 34.346874 214.12813 32.3Q214.12813 30.378124 213.25313 29.39375Q212.37813 28.39375 211.08125 28.39375Q209.75313 28.39375 208.87813 29.39375Q208.01875 30.378124 208.01875 32.3625ZM217.87813 37.55L217.87813 23.2375L219.64375 23.2375L219.64375 31.39375L223.8 27.175L226.06563 27.175L222.1125 31.01875L226.47188 37.55L224.3 37.55L220.87813 32.253124L219.64375 33.440624L219.64375 37.55L217.87813 37.55ZM240.64375 36.26875Q239.65938 37.096874 238.75313 37.440624Q237.84688 37.784374 236.81563 37.784374Q235.1125 37.784374 234.19063 36.95625Q233.26875 36.1125 233.26875 34.815624Q233.26875 34.05 233.6125 33.425Q233.97188 32.8 234.53438 32.425Q235.09688 32.034374 235.8 31.83125Q236.31563 31.70625 237.3625 31.565624Q239.4875 31.315624 240.4875 30.971874Q240.50313 30.6125 240.50313 30.503124Q240.50313 29.440624 240.00313 28.9875Q239.33125 28.39375 238.00313 28.39375Q236.75313 28.39375 236.15938 28.83125Q235.58125 29.26875 235.3 30.378124L233.58125 30.14375Q233.81563 29.034374 234.34688 28.3625Q234.87813 27.675 235.89375 27.315624Q236.90938 26.940624 238.25313 26.940624Q239.58125 26.940624 240.40938 27.253124Q241.2375 27.565624 241.62813 28.05Q242.01875 28.51875 242.175 29.2375Q242.26875 29.690624 242.26875 30.8625L242.26875 33.20625Q242.26875 35.659374 242.37813 36.315624Q242.4875 36.95625 242.83125 37.55L240.9875 37.55Q240.72188 37.003124 240.64375 36.26875ZM240.4875 32.346874Q239.53438 32.7375 237.6125 33.003124Q236.53438 33.159374 236.08125 33.3625Q235.64375 33.55 235.39375 33.925Q235.14375 34.3 235.14375 34.76875Q235.14375 35.471874 235.675 35.940624Q236.20625 36.409374 237.2375 36.409374Q238.25313 36.409374 239.03438 35.971874Q239.83125 35.51875 240.20625 34.753124Q240.4875 34.14375 240.4875 32.9875L240.4875 32.346874ZM248.70625 35.971874L248.95625 37.534374Q248.22188 37.690624 247.62813 37.690624Q246.675 37.690624 246.14375 37.39375Q245.62813 37.08125 245.40938 36.596874Q245.19063 36.096874 245.19063 34.51875L245.19063 28.55L243.90938 28.55L243.90938 27.175L245.19063 27.175L245.19063 24.6125L246.94063 23.55L246.94063 27.175L248.70625 27.175L248.70625 28.55L246.94063 28.55L246.94063 34.6125Q246.94063 35.3625 247.03438 35.58125Q247.12813 35.784374 247.33125 35.925Q247.55 36.05 247.94063 36.05Q248.22188 36.05 248.70625 35.971874ZM256.8625 37.55L256.8625 23.2375L258.6281 23.2375L258.6281 28.3625Q259.8625 26.940624 261.7375 26.940624Q262.8781 26.940624 263.72186 27.39375Q264.58124 27.846874 264.9406 28.659374Q265.3156 29.45625 265.3156 30.971874L265.3156 37.55L263.5656 37.55L263.5656 30.971874Q263.5656 29.659374 262.9875 29.065624Q262.40936 28.45625 261.3781 28.45625Q260.59686 28.45625 259.89374 28.8625Q259.20624 29.26875 258.90936 29.971874Q258.6281 30.659374 258.6281 31.878124L258.6281 37.55L256.8625 37.55ZM266.22186 32.3625Q266.22186 29.4875 267.8156 28.096874Q269.15936 26.940624 271.08124 26.940624Q273.22186 26.940624 274.5656 28.346874Q275.925 29.753124 275.925 32.221874Q275.925 34.221874 275.33124 35.378124Q274.7375 36.51875 273.58124 37.159374Q272.4406 37.784374 271.08124 37.784374Q268.89374 37.784374 267.55 36.39375Q266.22186 34.9875 266.22186 32.3625ZM268.01874 32.3625Q268.01874 34.3625 268.8781 35.346874Q269.7531 36.33125 271.08124 36.33125Q272.39374 36.33125 273.2531 35.346874Q274.1281 34.346874 274.1281 32.3Q274.1281 30.378124 273.2531 29.39375Q272.3781 28.39375 271.08124 28.39375Q269.7531 28.39375 268.8781 29.39375Q268.01874 30.378124 268.01874 32.3625ZM277.8625 37.55L277.8625 27.175L279.4406 27.175L279.4406 28.628124Q279.925 27.878124 280.7375 27.409374Q281.55 26.940624 282.58124 26.940624Q283.7375 26.940624 284.47186 27.425Q285.20624 27.89375 285.51874 28.753124Q286.7531 26.940624 288.72186 26.940624Q290.26874 26.940624 291.09686 27.8Q291.925 28.659374 291.925 30.425L291.925 37.55L290.175 37.55L290.175 31.01875Q290.175 29.95625 290.0031 29.503124Q289.83124 29.034374 289.3781 28.753124Q288.9406 28.471874 288.33124 28.471874Q287.2375 28.471874 286.5031 29.20625Q285.78436 29.925 285.78436 31.51875L285.78436 37.55L284.03436 37.55L284.03436 30.815624Q284.03436 29.64375 283.59686 29.065624Q283.175 28.471874 282.1906 28.471874Q281.45624 28.471874 280.8156 28.8625Q280.1906 29.253124 279.90936 30.003124Q279.6281 30.753124 279.6281 32.175L279.6281 37.55L277.8625 37.55ZM300.97186 34.20625L302.78436 34.440624Q302.3625 36.01875 301.1906 36.909374Q300.03436 37.784374 298.22186 37.784374Q295.95624 37.784374 294.6125 36.39375Q293.28436 34.9875 293.28436 32.45625Q293.28436 29.83125 294.6281 28.39375Q295.97186 26.940624 298.1281 26.940624Q300.20624 26.940624 301.51874 28.3625Q302.84686 29.76875 302.84686 32.346874Q302.84686 32.503124 302.83124 32.815624L295.09686 32.815624Q295.1906 34.51875 296.0656 35.425Q296.9406 36.33125 298.2375 36.33125Q299.20624 36.33125 299.8781 35.83125Q300.5656 35.315624 300.97186 34.20625ZM295.1906 31.3625L300.9875 31.3625Q300.8781 30.065624 300.33124 29.409374Q299.4875 28.39375 298.14374 28.39375Q296.9406 28.39375 296.1125 29.20625Q295.28436 30.003124 295.1906 31.3625ZM308.15936 34.01875Q308.14374 33.675 308.14374 33.503124Q308.14374 32.45625 308.4406 31.70625Q308.65936 31.14375 309.14374 30.565624Q309.4875 30.14375 310.39374 29.346874Q311.3156 28.534374 311.58124 28.065624Q311.8625 27.58125 311.8625 27.01875Q311.8625 25.9875 311.05 25.221874Q310.2531 24.440624 309.09686 24.440624Q307.97186 24.440624 307.22186 25.14375Q306.47186 25.846874 306.2375 27.33125L304.425 27.1125Q304.675 25.1125 305.8781 24.05Q307.08124 22.9875 309.0656 22.9875Q311.175 22.9875 312.425 24.128124Q313.675 25.26875 313.675 26.89375Q313.675 27.83125 313.22186 28.628124Q312.78436 29.409374 311.5031 30.55Q310.64374 31.315624 310.3781 31.675Q310.1281 32.034374 309.9875 32.503124Q309.8625 32.971874 309.84686 34.01875L308.15936 34.01875ZM308.05 37.55L308.05 35.55L310.05 35.55L310.05 37.55L308.05 37.55Z" fill-rule="nonzero"/></svg>