<svg width="36" height="36" viewBox="0 0 36 36" fill="none" xmlns="http://www.w3.org/2000/svg">
<path d="M23 13C24.9891 13 26.8968 13.7902 28.3033 15.1967C29.7098 16.6032 30.5 18.5109 30.5 20.5V29.25H25.5V20.5C25.5 19.837 25.2366 19.2011 24.7678 18.7322C24.2989 18.2634 23.663 18 23 18C22.337 18 21.7011 18.2634 21.2322 18.7322C20.7634 19.2011 20.5 19.837 20.5 20.5V29.25H15.5V20.5C15.5 18.5109 16.2902 16.6032 17.6967 15.1967C19.1032 13.7902 21.0109 13 23 13Z" fill="black"/>
<path d="M10.5 14.25H5.5V29.25H10.5V14.25Z" fill="black"/>
<path d="M8 10.5C9.38071 10.5 10.5 9.38071 10.5 8C10.5 6.61929 9.38071 5.5 8 5.5C6.61929 5.5 5.5 6.61929 5.5 8C5.5 9.38071 6.61929 10.5 8 10.5Z" fill="black"/>
</svg>
